# Blender 4.4.3
# www.blender.org
mtllib landscape2.mtl
o Cylinder
v 1.316734 -0.488011 -10.756218
v 3.624736 -0.488011 -10.800501
v 1.599239 -0.488011 -10.929420
v 1.926261 -0.488011 -11.052451
v 2.281403 -0.488011 -11.119144
v 2.646855 -0.488011 -11.126156
v 3.004294 -0.488011 -11.073134
v 3.335795 -0.488011 -10.962737
v 3.624736 0.488011 -10.800501
v 1.316734 0.488011 -10.756218
v 3.335795 0.488011 -10.962737
v 3.004294 0.488011 -11.073134
v 2.646856 0.488011 -11.126156
v 2.281403 0.488011 -11.119144
v 1.926261 0.488011 -11.052451
v 1.599239 0.488011 -10.929420
v 9.957995 -0.488011 -6.323501
v 10.716872 -0.488011 -4.123357
v 10.208096 -0.488011 -6.104992
v 10.425026 -0.488011 -5.828599
v 10.597905 -0.488011 -5.508182
v 10.718066 -0.488011 -5.159807
v 10.779486 -0.488011 -4.800944
v 10.779080 -0.488011 -4.449588
v 10.716872 0.488011 -4.123357
v 9.957995 0.488011 -6.323501
v 10.779080 0.488011 -4.449588
v 10.779486 0.488011 -4.800944
v 10.718066 0.488011 -5.159807
v 10.597905 0.488011 -5.508182
v 10.425026 0.488011 -5.828599
v 10.208096 0.488011 -6.104992
v 8.468180 -0.488011 3.380230
v 6.623843 -0.488011 4.780580
v 8.340704 -0.488011 3.686408
v 8.147768 -0.488011 3.978613
v 7.899045 -0.488011 4.242190
v 7.607010 -0.488011 4.463923
v 7.286305 -0.488011 4.632694
v 6.953012 -0.488011 4.740041
v 6.623843 0.488011 4.780580
v 8.468180 0.488011 3.380230
v 6.953012 0.488011 4.740041
v 7.286305 0.488011 4.632694
v 7.607010 0.488011 4.463923
v 7.899045 0.488011 4.242190
v 8.147768 0.488011 3.978613
v 8.340704 0.488011 3.686408
v -1.082495 -0.488011 4.928437
v -2.979190 -0.488011 3.599864
v -1.412977 -0.488011 4.900555
v -1.750142 -0.488011 4.806071
v -2.077085 -0.488011 4.649727
v -2.377411 -0.488011 4.439359
v -2.636060 -0.488011 4.185516
v -2.840063 -0.488011 3.900928
v -2.979190 0.488011 3.599864
v -1.082495 0.488011 4.928437
v -2.840063 0.488011 3.900928
v -2.636060 0.488011 4.185516
v -2.377411 0.488011 4.439359
v -2.077085 0.488011 4.649727
v -1.750142 0.488011 4.806071
v -1.412977 0.488011 4.900555
v -5.514056 -0.488011 -3.811943
v -4.840133 -0.488011 -6.039577
v -5.588733 -0.488011 -4.135548
v -5.602615 -0.488011 -4.486630
v -5.555007 -0.488011 -4.847585
v -5.448297 -0.488011 -5.200313
v -5.287835 -0.488011 -5.527125
v -5.081667 -0.488011 -5.811635
v -4.840133 0.488011 -6.039577
v -5.514056 0.488011 -3.811943
v -5.081667 0.488011 -5.811635
v -5.287835 0.488011 -5.527125
v -5.448297 0.488011 -5.200313
v -5.555007 0.488011 -4.847585
v -5.602615 0.488011 -4.486630
v -5.588733 0.488011 -4.135548
v 3.624736 0.162670 -10.800501
v 3.624736 -0.162670 -10.800501
v 9.957995 -0.162670 -6.323501
v 9.957995 0.162670 -6.323501
v 5.735822 -0.488011 -9.308167
v 7.846909 -0.488011 -7.815834
v 5.735822 0.488011 -9.308167
v 7.846909 0.488011 -7.815834
v 5.735822 -0.162670 -9.308167
v 7.846909 -0.162670 -7.815834
v 5.735822 0.162670 -9.308167
v 7.846909 0.162670 -7.815834
v 7.766780 -0.463528 -12.223799
v 9.902322 -0.512318 -10.767492
v 7.783162 0.512318 -12.215127
v 9.918703 0.463529 -10.758821
v 7.772240 -0.138246 -12.220908
v 9.907784 -0.187036 -10.764604
v 7.777701 0.187036 -12.218017
v 9.913243 0.138246 -10.761711
v -2.979190 0.162670 3.599864
v -2.979190 -0.162670 3.599864
v -5.514056 -0.162670 -3.811943
v -5.514056 0.162670 -3.811943
v -3.824146 -0.488011 1.129261
v -4.669101 -0.488011 -1.341341
v -4.669101 0.488011 -1.341341
v -3.824145 0.488011 1.129262
v -3.824146 -0.162670 1.129261
v -4.669101 -0.162670 -1.341341
v -3.824146 0.162670 1.129261
v -4.669101 0.162670 -1.341341
v -7.164360 -0.490369 2.252607
v -8.009314 -0.490369 -0.217996
v -8.009314 0.485653 -0.217996
v -7.164359 0.485653 2.252607
v -7.164360 -0.165028 2.252607
v -8.009314 -0.165028 -0.217996
v -7.164360 0.160313 2.252607
v -8.009314 0.160313 -0.217996
vn -0.6081 -0.0000 -0.7938
vn 0.0192 -0.0000 0.9998
vn 0.9579 -0.0000 0.2871
vn -0.0000 1.0000 -0.0000
vn -0.5227 -0.0000 -0.8525
vn -0.3521 -0.0000 -0.9360
vn -0.1846 -0.0000 -0.9828
vn -0.0192 -0.0000 -0.9998
vn 0.1467 -0.0000 -0.9892
vn 0.3160 -0.0000 -0.9488
vn 0.4896 -0.0000 -0.8720
vn 0.9823 -0.0000 0.1873
vn 1.0000 -0.0000 0.0012
vn 0.9857 -0.0000 -0.1687
vn 0.9453 -0.0000 -0.3261
vn 0.8801 -0.0000 -0.4748
vn 0.7866 -0.0000 -0.6174
vn 0.6579 -0.0000 -0.7531
vn 0.1222 -0.0000 0.9925
vn 0.3066 -0.0000 0.9518
vn 0.4657 -0.0000 0.8849
vn 0.6047 -0.0000 0.7964
vn 0.7273 -0.0000 0.6863
vn 0.8345 -0.0000 0.5510
vn 0.9232 -0.0000 0.3844
vn -0.9078 -0.0000 0.4195
vn -0.8128 -0.0000 0.5826
vn -0.7004 -0.0000 0.7137
vn -0.5737 -0.0000 0.8191
vn -0.4314 -0.0000 0.9022
vn -0.2698 -0.0000 0.9629
vn -0.0841 -0.0000 0.9965
vn -0.6863 -0.0000 -0.7273
vn -0.8098 -0.0000 -0.5868
vn -0.8976 -0.0000 -0.4407
vn -0.9572 -0.0000 -0.2896
vn -0.9914 -0.0000 -0.1308
vn -0.9992 -0.0000 0.0395
vn -0.9744 -0.0000 0.2249
vn -0.0000 -1.0000 -0.0000
vn 0.5772 -0.0000 -0.8166
vn 0.0077 1.0000 0.0054
vn 0.5634 -0.0021 -0.8262
vn -0.0077 -1.0000 -0.0054
vn 0.8191 -0.0094 0.5736
vn -0.8191 0.0094 -0.5736
vn -0.9462 -0.0000 0.3236
vn -0.0006 1.0000 0.0002
vn 0.0006 -1.0000 -0.0002
vn -0.3188 -0.0000 -0.9478
vn 0.3188 -0.0000 0.9478
vt -1.533780 0.015853
vt -1.533780 0.995209
vt -2.442064 0.995209
vt -2.442064 0.015853
vt 0.953378 0.015853
vt 0.953378 0.995209
vt 0.046622 0.995209
vt 0.046622 0.015853
vt 2.199317 0.015853
vt 2.199317 0.995209
vt 1.288605 0.995209
vt 1.288604 0.015853
vt 1.246444 0.599720
vt 1.252463 0.627922
vt 1.253091 0.658408
vt 1.248297 0.689647
vt 1.238322 0.720074
vt 1.223666 0.748163
vt 1.205063 0.772506
vt 1.183447 0.791882
vt 1.000390 0.924880
vt 0.817333 1.057878
vt 0.634276 1.190877
vt 0.609151 1.205435
vt 0.580196 1.215565
vt 0.548866 1.220761
vt 0.516729 1.220761
vt 0.485398 1.215565
vt 0.456444 1.205435
vt 0.431318 1.190877
vt -0.117852 0.791882
vt -0.139468 0.772506
vt -0.158071 0.748163
vt -0.172727 0.720074
vt -0.182703 0.689647
vt -0.187496 0.658408
vt -0.186868 0.627922
vt -0.180850 0.599720
vt -0.110741 0.383949
vt -0.040633 0.168177
vt 0.029476 -0.047594
vt 0.041198 -0.073948
vt 0.058650 -0.098980
vt 0.080959 -0.121436
vt 0.107004 -0.140189
vt 0.135480 -0.154298
vt 0.164959 -0.163057
vt 0.193962 -0.166027
vt 0.871632 -0.166027
vt 0.900636 -0.163057
vt 0.930115 -0.154298
vt 0.958591 -0.140189
vt 0.984636 -0.121436
vt 1.006945 -0.098980
vt 1.024397 -0.073948
vt 1.036119 -0.047594
vt -2.480662 0.995209
vt -2.480662 0.015853
vt -2.519826 0.995209
vt -2.519826 0.015853
vt -2.557591 0.995209
vt -2.557591 0.015853
vt -2.609903 0.995209
vt -2.609903 0.015853
vt 3.609903 0.015853
vt 3.609903 0.995209
vt 3.519826 0.995209
vt 3.519826 0.015853
vt 3.480662 0.995209
vt 3.480662 0.015853
vt 3.442064 0.995209
vt 3.442064 0.668757
vt 3.442064 0.342305
vt 3.442064 0.015853
vt 2.237725 0.015853
vt 2.237725 0.995209
vt 2.276869 0.015853
vt 2.276869 0.995209
vt 2.314785 0.015853
vt 2.314785 0.995209
vt 2.417470 0.015853
vt 2.417470 0.995209
vt 2.455663 0.015853
vt 2.455663 0.995209
vt 2.495091 0.015853
vt 2.495091 0.995209
vt 2.533779 0.015853
vt 2.533779 0.342305
vt 2.533779 0.668757
vt 2.533779 0.995209
vt 0.992187 0.015853
vt 0.992187 0.995209
vt 1.031631 0.015853
vt 1.031631 0.995209
vt 1.069733 0.015853
vt 1.069734 0.995209
vt 1.173614 0.015853
vt 1.173614 0.995209
vt 1.211270 0.015853
vt 1.211270 0.995209
vt 1.250251 0.015853
vt 1.250251 0.995209
vt -0.288605 0.995209
vt -0.288605 0.668757
vt -0.288605 0.342305
vt -0.288605 0.015853
vt -0.250252 0.015853
vt -0.250252 0.995209
vt -0.211270 0.015853
vt -0.211270 0.995209
vt -0.173615 0.015853
vt -0.173615 0.995209
vt -0.069734 0.015853
vt -0.069734 0.995209
vt -0.031631 0.015853
vt -0.031631 0.995209
vt 0.007813 0.015853
vt 0.007813 0.995209
vt -1.495092 0.015853
vt -1.495091 0.995209
vt -1.455663 0.015853
vt -1.455663 0.995209
vt -1.417471 0.015853
vt -1.417471 0.995209
vt -1.314785 0.015853
vt -1.314785 0.995209
vt -1.276869 0.015853
vt -1.276869 0.995209
vt -1.237725 0.015853
vt -1.237725 0.995209
vt -1.199317 0.015853
vt -1.199317 0.342305
vt -1.199317 0.668757
vt -1.199317 0.995209
vt 0.719203 0.467625
vt 0.726828 0.472043
vt 0.735615 0.475117
vt 0.745124 0.476694
vt 0.754876 0.476694
vt 0.764385 0.475117
vt 0.773171 0.472043
vt 0.780797 0.467625
vt 0.836350 0.427263
vt 0.891904 0.386901
vt 0.947457 0.346539
vt 0.954017 0.340659
vt 0.959663 0.333272
vt 0.964111 0.324747
vt 0.967138 0.315513
vt 0.968592 0.306033
vt 0.968402 0.296781
vt 0.966575 0.288222
vt 0.902747 0.091778
vt 0.899189 0.083780
vt 0.893893 0.076183
vt 0.887123 0.069368
vt 0.879219 0.063677
vt 0.870577 0.059395
vt 0.861631 0.056737
vt 0.852829 0.055836
vt 0.647171 0.055836
vt 0.638369 0.056737
vt 0.629423 0.059395
vt 0.620781 0.063677
vt 0.612877 0.069368
vt 0.606107 0.076183
vt 0.600811 0.083780
vt 0.597253 0.091778
vt 0.575977 0.157259
vt 0.554701 0.222741
vt 0.533425 0.288222
vt 0.531598 0.296781
vt 0.531407 0.306033
vt 0.532862 0.315513
vt 0.535890 0.324747
vt 0.540337 0.333272
vt 0.545983 0.340659
vt 0.552543 0.346539
vt 3.139302 0.995209
vt 3.139302 0.668757
vt 3.139302 0.342305
vt 3.139302 0.015853
vt 0.194725 -0.239966
vt 0.490359 -0.243519
vt 0.490359 1.223413
vt 0.194787 1.209220
vt 0.924338 0.500000
vt 0.924338 0.666667
vt 0.924338 0.833333
vt 0.924338 1.000000
vt 0.875661 1.000000
vt 0.875661 0.833333
vt 0.875661 0.666667
vt 0.875661 0.500000
vt 2.836541 0.995209
vt 2.836541 0.668757
vt 2.836541 0.342305
vt 2.836541 0.015853
vt 0.324404 0.500000
vt 0.324404 0.666667
vt 0.324404 0.833333
vt 0.324404 1.000000
vt 0.275596 1.000000
vt 0.275596 0.833333
vt 0.275596 0.666667
vt 0.275596 0.500000
vt 0.491407 1.016937
vt -0.008184 1.013039
vt -0.008184 -0.016936
vt 0.491407 -0.013039
vt -0.895746 0.995209
vt -0.895746 0.668757
vt -0.895746 0.342305
vt -0.895746 0.015853
vt -0.592176 0.995209
vt -0.592176 0.668757
vt -0.592176 0.342305
vt -0.592176 0.015853
s 0
usemtl cliff.002
f 66/1/1 73/2/1 10/3/1 1/4/1
f 34/5/2 41/6/2 58/7/2 49/8/2
f 18/9/3 25/10/3 42/11/3 33/12/3
f 1/4/5 10/3/5 16/57/5 3/58/5
f 3/58/6 16/57/6 15/59/6 4/60/6
f 4/60/7 15/59/7 14/61/7 5/62/7
f 5/62/8 14/61/8 13/63/8 6/64/8
f 6/65/9 13/66/9 12/67/9 7/68/9
f 7/68/10 12/67/10 11/69/10 8/70/10
f 8/70/11 11/69/11 9/71/11 81/72/11 82/73/11 2/74/11
f 25/10/12 18/9/12 24/75/12 27/76/12
f 27/76/13 24/75/13 23/77/13 28/78/13
f 28/78/14 23/77/14 22/79/14 29/80/14
f 29/80/15 22/79/15 21/81/15 30/82/15
f 30/82/16 21/81/16 20/83/16 31/84/16
f 31/84/17 20/83/17 19/85/17 32/86/17
f 32/86/18 19/85/18 17/87/18 83/88/18 84/89/18 26/90/18
f 41/6/19 34/5/19 40/91/19 43/92/19
f 43/92/20 40/91/20 39/93/20 44/94/20
f 44/94/21 39/93/21 38/95/21 45/96/21
f 45/96/22 38/95/22 37/97/22 46/98/22
f 46/98/23 37/97/23 36/99/23 47/100/23
f 47/100/24 36/99/24 35/101/24 48/102/24
f 48/102/25 35/101/25 33/12/25 42/11/25
f 57/103/26 101/104/26 102/105/26 50/106/26 56/107/26 59/108/26
f 59/108/27 56/107/27 55/109/27 60/110/27
f 60/110/28 55/109/28 54/111/28 61/112/28
f 61/112/29 54/111/29 53/113/29 62/114/29
f 62/114/30 53/113/30 52/115/30 63/116/30
f 63/116/31 52/115/31 51/117/31 64/118/31
f 64/118/32 51/117/32 49/8/32 58/7/32
f 73/2/33 66/1/33 72/119/33 75/120/33
f 75/120/34 72/119/34 71/121/34 76/122/34
f 76/122/35 71/121/35 70/123/35 77/124/35
f 77/124/36 70/123/36 69/125/36 78/126/36
f 78/126/37 69/125/37 68/127/37 79/128/37
f 79/128/38 68/127/38 67/129/38 80/130/38
f 80/130/39 67/129/39 65/131/39 103/132/39 104/133/39 74/134/39
f 1/135/40 3/136/40 4/137/40 5/138/40 6/139/40 7/140/40 8/141/40 2/142/40 85/143/40 86/144/40 17/145/40 19/146/40 20/147/40 21/148/40 22/149/40 23/150/40 24/151/40 18/152/40 33/153/40 35/154/40 36/155/40 37/156/40 38/157/40 39/158/40 40/159/40 34/160/40 49/161/40 51/162/40 52/163/40 53/164/40 54/165/40 55/166/40 56/167/40 50/168/40 105/169/40 106/170/40 65/171/40 67/172/40 68/173/40 69/174/40 70/175/40 71/176/40 72/177/40 66/178/40
f 2/74/41 82/73/41 81/72/41 9/71/41 87/179/41 91/180/41 89/181/41 85/182/41
f 93/187/43 97/188/43 99/189/43 95/190/43 96/191/43 100/192/43 98/193/43 94/194/43
f 92/196/41 88/195/41 26/90/41 84/89/41 83/88/41 17/87/41 86/198/41 90/197/41
f 113/199/47 117/200/47 119/201/47 116/202/47 115/203/47 120/204/47 118/205/47 114/206/47
f 112/212/47 107/211/47 74/134/47 104/133/47 103/132/47 65/131/47 106/214/47 110/213/47
f 50/106/47 102/105/47 101/104/47 57/103/47 108/215/47 111/216/47 109/217/47 105/218/47
usemtl ground.002
f 25/13/4 27/14/4 28/15/4 29/16/4 30/17/4 31/18/4 32/19/4 26/20/4 88/21/4 87/22/4 9/23/4 11/24/4 12/25/4 13/26/4 14/27/4 15/28/4 16/29/4 10/30/4 73/31/4 75/32/4 76/33/4 77/34/4 78/35/4 79/36/4 80/37/4 74/38/4 107/39/4 108/40/4 57/41/4 59/42/4 60/43/4 61/44/4 62/45/4 63/46/4 64/47/4 58/48/4 41/49/4 43/50/4 44/51/4 45/52/4 46/53/4 47/54/4 48/55/4 42/56/4
usemtl Material.003
f 87/183/42 88/184/42 96/185/42 95/186/42
f 86/144/44 85/143/44 93/143/44 94/144/44
f 88/195/45 92/196/45 90/197/45 86/198/45 94/198/45 98/197/45 100/196/45 96/195/45
f 89/181/46 91/180/46 87/179/46 95/179/46 99/180/46 97/181/46 93/182/46 85/182/46
f 108/207/48 107/208/48 115/209/48 116/210/48
f 106/170/49 105/169/49 113/169/49 114/170/49
f 107/211/50 112/212/50 110/213/50 106/214/50 114/214/50 118/213/50 120/212/50 115/211/50
f 111/216/51 108/215/51 116/215/51 119/216/51 117/217/51 113/218/51 105/218/51 109/217/51
o Cylinder.002
v -23.022572 -0.488011 -5.569974
v -20.871502 -0.488011 -7.140800
v -22.870426 -0.488011 -5.920752
v -22.642990 -0.488011 -6.253626
v -22.351664 -0.488011 -6.551906
v -22.011059 -0.488011 -6.800633
v -21.638256 -0.488011 -6.987336
v -21.251945 -0.488011 -7.102652
v -20.871502 0.488011 -7.140800
v -23.022572 0.488011 -5.569974
v -21.251945 0.488011 -7.102652
v -21.638256 0.488011 -6.987336
v -22.011059 0.488011 -6.800633
v -22.351664 0.488011 -6.551906
v -22.642990 0.488011 -6.253626
v -22.870426 0.488011 -5.920752
v -11.922470 -0.488011 -7.106924
v -9.748008 -0.488011 -5.531147
v -11.541439 -0.488011 -7.066180
v -11.153399 -0.488011 -6.948777
v -10.777809 -0.488011 -6.760602
v -10.433501 -0.488011 -6.511090
v -10.137740 -0.488011 -6.212755
v -9.905359 -0.488011 -5.880555
v -9.748008 0.488011 -5.531147
v -11.922470 0.488011 -7.106924
v -9.905359 0.488011 -5.880555
v -10.137740 0.488011 -6.212755
v -10.433501 0.488011 -6.511090
v -10.777809 0.488011 -6.760602
v -11.153399 0.488011 -6.948777
v -11.541439 0.488011 -7.066180
v -6.901455 -0.488011 3.047317
v -7.716135 -0.488011 5.592075
v -6.819050 -0.488011 3.421018
v -6.807741 -0.488011 3.824883
v -6.868099 -0.488011 4.238661
v -6.997097 -0.488011 4.641602
v -7.188267 -0.488011 5.013502
v -7.432020 -0.488011 5.335712
v -7.716135 0.488011 5.592075
v -6.901455 0.488011 3.047317
v -7.432020 0.488011 5.335712
v -7.188267 0.488011 5.013502
v -6.997097 0.488011 4.641602
v -6.868099 0.488011 4.238661
v -6.807741 0.488011 3.824883
v -6.819050 0.488011 3.421018
v -14.898489 -0.488011 10.837007
v -17.570473 -0.488011 10.838393
v -15.229173 -0.488011 11.029601
v -15.610291 -0.488011 11.163705
v -16.022734 -0.488011 11.232594
v -16.445820 -0.488011 11.232814
v -16.858334 -0.488011 11.164353
v -17.239592 -0.488011 11.030643
v -17.570473 0.488011 10.838393
v -14.898489 0.488011 10.837007
v -17.239592 0.488011 11.030643
v -16.858334 0.488011 11.164353
v -16.445820 0.488011 11.232814
v -16.022734 0.488011 11.232594
v -15.610291 0.488011 11.163705
v -15.229173 0.488011 11.029601
v -24.875332 -0.488011 5.515617
v -25.714415 -0.488011 2.964678
v -25.160259 -0.488011 5.259373
v -25.405958 -0.488011 4.936897
v -25.600105 -0.488011 4.564358
v -25.732967 -0.488011 4.160438
v -25.797882 -0.488011 3.745391
v -25.791592 -0.488011 3.340029
v -25.714415 0.488011 2.964678
v -24.875332 0.488011 5.515617
v -25.791592 0.488011 3.340029
v -25.797882 0.488011 3.745391
v -25.732967 0.488011 4.160438
v -25.600105 0.488011 4.564358
v -25.405958 0.488011 4.936897
v -25.160259 0.488011 5.259373
vn -0.9537 -0.0000 -0.3008
vn 0.5897 -0.0000 0.8076
vn -0.5889 -0.0000 0.8082
vn 0.9491 -0.0000 -0.3149
vn -0.0000 1.0000 -0.0000
vn 0.0038 -0.0000 -1.0000
vn -0.9174 -0.0000 -0.3979
vn -0.8257 -0.0000 -0.5641
vn -0.7154 -0.0000 -0.6987
vn -0.5897 -0.0000 -0.8076
vn -0.4478 -0.0000 -0.8941
vn -0.2860 -0.0000 -0.9582
vn -0.0998 -0.0000 -0.9950
vn 0.9118 -0.0000 -0.4106
vn 0.8194 -0.0000 -0.5732
vn 0.7102 -0.0000 -0.7040
vn 0.5868 -0.0000 -0.8097
vn 0.4479 -0.0000 -0.8941
vn 0.2896 -0.0000 -0.9572
vn 0.1063 -0.0000 -0.9943
vn 0.6699 -0.0000 0.7424
vn 0.7975 -0.0000 0.6033
vn 0.8894 -0.0000 0.4572
vn 0.9524 -0.0000 0.3049
vn 0.9895 -0.0000 0.1443
vn 0.9996 -0.0000 -0.0280
vn 0.9765 -0.0000 -0.2153
vn -0.5024 -0.0000 0.8646
vn -0.3309 -0.0000 0.9437
vn -0.1637 -0.0000 0.9865
vn 0.0005 -0.0000 1.0000
vn 0.1647 -0.0000 0.9863
vn 0.3319 -0.0000 0.9433
vn 0.5033 -0.0000 0.8641
vn -0.9795 -0.0000 -0.2014
vn -0.9999 -0.0000 -0.0155
vn -0.9880 -0.0000 0.1545
vn -0.9499 -0.0000 0.3125
vn -0.8868 -0.0000 0.4622
vn -0.7954 -0.0000 0.6060
vn -0.6687 -0.0000 0.7435
vn -0.0000 -1.0000 -0.0000
vt -1.790585 0.011548
vt -1.790585 0.999225
vt -2.812493 0.999225
vt -2.812493 0.011548
vt 1.007708 0.011548
vt 1.007708 0.999225
vt -0.012481 0.999225
vt -0.012481 0.011548
vt -0.389643 0.011548
vt -0.389643 0.999225
vt -1.414282 0.999225
vt -1.414283 0.011548
vt 2.409509 0.011548
vt 2.409509 0.999225
vt 1.384870 0.999225
vt 1.384870 0.011548
vt 1.527677 0.669567
vt 1.535924 0.708212
vt 1.536785 0.749986
vt 1.530216 0.792793
vt 1.516547 0.834488
vt 1.496464 0.872978
vt 1.470972 0.906335
vt 1.441351 0.932885
vt 0.688824 1.479628
vt 0.654395 1.499577
vt 0.614719 1.513458
vt 0.571786 1.520578
vt 0.527749 1.520578
vt 0.484816 1.513459
vt 0.445140 1.499577
vt 0.410711 1.479628
vt -0.341816 0.932885
vt -0.371437 0.906335
vt -0.396929 0.872978
vt -0.417012 0.834488
vt -0.430681 0.792793
vt -0.437250 0.749986
vt -0.436389 0.708212
vt -0.428142 0.669567
vt -0.139934 -0.217448
vt -0.123871 -0.253560
vt -0.099956 -0.287862
vt -0.069387 -0.318633
vt -0.033697 -0.344330
vt 0.005324 -0.363664
vt 0.045719 -0.375667
vt 0.085463 -0.379736
vt 1.014073 -0.379736
vt 1.053816 -0.375667
vt 1.094211 -0.363664
vt 1.133232 -0.344330
vt 1.168922 -0.318633
vt 1.199491 -0.287862
vt 1.223406 -0.253560
vt 1.239469 -0.217448
vt 3.807720 0.011548
vt 3.807720 0.999225
vt 2.785813 0.999225
vt 2.785813 0.011548
vt -2.855919 0.999225
vt -2.855920 0.011548
vt -2.899982 0.999225
vt -2.899982 0.011548
vt -2.942472 0.999225
vt -2.942472 0.011548
vt -3.001327 0.999225
vt -3.001327 0.011548
vt 3.996554 0.011548
vt 3.996554 0.999225
vt 3.895210 0.999225
vt 3.895210 0.011548
vt 3.851147 0.999225
vt 3.851147 0.011548
vt 2.452723 0.011548
vt 2.452723 0.999225
vt 2.496763 0.011548
vt 2.496763 0.999225
vt 2.539422 0.011548
vt 2.539422 0.999225
vt 2.654952 0.011548
vt 2.654952 0.999225
vt 2.697923 0.011548
vt 2.697923 0.999225
vt 2.742284 0.011548
vt 2.742284 0.999225
vt 1.051371 0.011548
vt 1.051371 0.999225
vt 1.095750 0.011548
vt 1.095749 0.999225
vt 1.138618 0.011548
vt 1.138619 0.999225
vt 1.255495 0.011548
vt 1.255495 0.999225
vt 1.297861 0.011548
vt 1.297861 0.999225
vt 1.341719 0.011548
vt 1.341719 0.999225
vt -0.346492 0.011548
vt -0.346492 0.999225
vt -0.302634 0.011548
vt -0.302634 0.999225
vt -0.260268 0.011548
vt -0.260268 0.999225
vt -0.143392 0.011548
vt -0.143392 0.999225
vt -0.100523 0.011548
vt -0.100523 0.999225
vt -0.056144 0.011548
vt -0.056144 0.999225
vt -1.747058 0.011548
vt -1.747057 0.999225
vt -1.702696 0.011548
vt -1.702696 0.999225
vt -1.659726 0.011548
vt -1.659726 0.999225
vt -1.544195 0.011548
vt -1.544195 0.999225
vt -1.501536 0.011548
vt -1.501535 0.999225
vt -1.457495 0.011548
vt -1.457495 0.999225
vt 0.719203 0.467625
vt 0.726828 0.472043
vt 0.735615 0.475117
vt 0.745124 0.476694
vt 0.754876 0.476694
vt 0.764385 0.475117
vt 0.773171 0.472043
vt 0.780797 0.467625
vt 0.947457 0.346539
vt 0.954017 0.340659
vt 0.959663 0.333272
vt 0.964111 0.324747
vt 0.967138 0.315513
vt 0.968592 0.306033
vt 0.968402 0.296781
vt 0.966575 0.288222
vt 0.902747 0.091778
vt 0.899189 0.083780
vt 0.893893 0.076183
vt 0.887123 0.069368
vt 0.879219 0.063677
vt 0.870577 0.059395
vt 0.861631 0.056737
vt 0.852829 0.055836
vt 0.647171 0.055836
vt 0.638369 0.056737
vt 0.629423 0.059395
vt 0.620781 0.063677
vt 0.612877 0.069368
vt 0.606107 0.076183
vt 0.600811 0.083780
vt 0.597253 0.091778
vt 0.533425 0.288222
vt 0.531598 0.296781
vt 0.531407 0.306033
vt 0.532862 0.315513
vt 0.535890 0.324747
vt 0.540337 0.333272
vt 0.545983 0.340659
vt 0.552543 0.346539
s 0
usemtl ground.002
f 145/235/56 147/236/56 148/237/56 149/238/56 150/239/56 151/240/56 152/241/56 146/242/56 129/243/56 131/244/56 132/245/56 133/246/56 134/247/56 135/248/56 136/249/56 130/250/56 193/251/56 195/252/56 196/253/56 197/254/56 198/255/56 199/256/56 200/257/56 194/258/56 177/259/56 179/260/56 180/261/56 181/262/56 182/263/56 183/264/56 184/265/56 178/266/56 161/267/56 163/268/56 164/269/56 165/270/56 166/271/56 167/272/56 168/273/56 162/274/56
f 121/341/93 123/342/93 124/343/93 125/344/93 126/345/93 127/346/93 128/347/93 122/348/93 137/349/93 139/350/93 140/351/93 141/352/93 142/353/93 143/354/93 144/355/93 138/356/93 153/357/93 155/358/93 156/359/93 157/360/93 158/361/93 159/362/93 160/363/93 154/364/93 169/365/93 171/366/93 172/367/93 173/368/93 174/369/93 175/370/93 176/371/93 170/372/93 185/373/93 187/374/93 188/375/93 189/376/93 190/377/93 191/378/93 192/379/93 186/380/93
usemtl cliff.002
f 186/219/52 193/220/52 130/221/52 121/222/52
f 154/223/53 161/224/53 178/225/53 169/226/53
f 170/227/54 177/228/54 194/229/54 185/230/54
f 138/231/55 145/232/55 162/233/55 153/234/55
f 122/275/57 129/276/57 146/277/57 137/278/57
f 121/222/58 130/221/58 136/279/58 123/280/58
f 123/280/59 136/279/59 135/281/59 124/282/59
f 124/282/60 135/281/60 134/283/60 125/284/60
f 125/284/61 134/283/61 133/285/61 126/286/61
f 126/287/62 133/288/62 132/289/62 127/290/62
f 127/290/63 132/289/63 131/291/63 128/292/63
f 128/292/64 131/291/64 129/276/64 122/275/64
f 145/232/65 138/231/65 144/293/65 147/294/65
f 147/294/66 144/293/66 143/295/66 148/296/66
f 148/296/67 143/295/67 142/297/67 149/298/67
f 149/298/68 142/297/68 141/299/68 150/300/68
f 150/300/69 141/299/69 140/301/69 151/302/69
f 151/302/70 140/301/70 139/303/70 152/304/70
f 152/304/71 139/303/71 137/278/71 146/277/71
f 161/224/72 154/223/72 160/305/72 163/306/72
f 163/306/73 160/305/73 159/307/73 164/308/73
f 164/308/74 159/307/74 158/309/74 165/310/74
f 165/310/75 158/309/75 157/311/75 166/312/75
f 166/312/76 157/311/76 156/313/76 167/314/76
f 167/314/77 156/313/77 155/315/77 168/316/77
f 168/316/78 155/315/78 153/234/78 162/233/78
f 177/228/79 170/227/79 176/317/79 179/318/79
f 179/318/80 176/317/80 175/319/80 180/320/80
f 180/320/81 175/319/81 174/321/81 181/322/81
f 181/322/82 174/321/82 173/323/82 182/324/82
f 182/324/83 173/323/83 172/325/83 183/326/83
f 183/326/84 172/325/84 171/327/84 184/328/84
f 184/328/85 171/327/85 169/226/85 178/225/85
f 193/220/86 186/219/86 192/329/86 195/330/86
f 195/330/87 192/329/87 191/331/87 196/332/87
f 196/332/88 191/331/88 190/333/88 197/334/88
f 197/334/89 190/333/89 189/335/89 198/336/89
f 198/336/90 189/335/90 188/337/90 199/338/90
f 199/338/91 188/337/91 187/339/91 200/340/91
f 200/340/92 187/339/92 185/230/92 194/229/92
o Cylinder.003
v 17.562605 -0.488011 -30.238720
v 20.068144 -0.488011 -28.555004
v 17.995134 -0.488011 -30.212357
v 18.437721 -0.488011 -30.098858
v 18.868174 -0.488011 -29.903923
v 19.264904 -0.488011 -29.637321
v 19.608021 -0.488011 -29.312420
v 19.880320 -0.488011 -28.945517
v 20.068144 0.488011 -28.555004
v 17.562605 0.488011 -30.238720
v 19.880320 0.488011 -28.945517
v 19.608021 0.488011 -29.312420
v 19.264904 0.488011 -29.637320
v 18.868174 0.488011 -29.903923
v 18.437721 0.488011 -30.098858
v 17.995134 0.488011 -30.212357
v 23.494272 -0.488011 -19.008904
v 22.656929 -0.488011 -16.082909
v 23.598282 -0.488011 -18.587246
v 23.623344 -0.488011 -18.128464
v 23.568199 -0.488011 -17.655561
v 23.435612 -0.488011 -17.192255
v 23.232235 -0.488011 -16.761774
v 22.968258 -0.488011 -16.385708
v 22.656929 0.488011 -16.082909
v 23.494272 0.488011 -19.008904
v 22.968258 0.488011 -16.385708
v 23.232235 0.488011 -16.761774
v 23.435612 0.488011 -17.192255
v 23.568199 0.488011 -17.655561
v 23.623344 0.488011 -18.128464
v 23.598282 0.488011 -18.587246
v 14.619959 -0.488011 -9.731756
v 11.593960 -0.488011 -9.615078
v 14.253754 -0.488011 -9.499394
v 13.827909 -0.488011 -9.331100
v 13.363779 -0.488011 -9.235314
v 12.884638 -0.488011 -9.216840
v 12.414511 -0.488011 -9.276602
v 11.976971 -0.488011 -9.411604
v 11.593960 0.488011 -9.615078
v 14.619959 0.488011 -9.731756
v 11.976971 0.488011 -9.411604
v 12.414511 0.488011 -9.276602
v 12.884638 0.488011 -9.216840
v 13.363779 0.488011 -9.235314
v 13.827909 0.488011 -9.331100
v 14.253754 0.488011 -9.499394
v 3.228052 -0.488011 -15.236946
v 2.192835 -0.488011 -18.082752
v 2.894955 -0.488011 -15.514696
v 2.604652 -0.488011 -15.868801
v 2.371701 -0.488011 -16.281506
v 2.207783 -0.488011 -16.732115
v 2.121117 -0.488011 -17.198034
v 2.116051 -0.488011 -17.655899
v 2.192835 0.488011 -18.082752
v 3.228052 0.488011 -15.236946
v 2.116051 0.488011 -17.655899
v 2.121117 0.488011 -17.198034
v 2.207783 0.488011 -16.732115
v 2.371701 0.488011 -16.281506
v 2.604652 0.488011 -15.868801
v 2.894955 0.488011 -15.514696
v 5.036829 -0.488011 -27.923571
v 7.429604 -0.488011 -29.804317
v 5.199562 -0.488011 -28.326227
v 5.448024 -0.488011 -28.712719
v 5.769761 -0.488011 -29.063662
v 6.148637 -0.488011 -29.361464
v 6.565654 -0.488011 -29.591187
v 6.999902 -0.488011 -29.741314
v 7.429604 0.488011 -29.804317
v 5.036829 0.488011 -27.923571
v 6.999902 0.488011 -29.741314
v 6.565654 0.488011 -29.591187
v 6.148637 0.488011 -29.361464
v 5.769761 0.488011 -29.063662
v 5.448024 0.488011 -28.712719
v 5.199562 0.488011 -28.326227
vn -0.0428 -0.0000 -0.9991
vn -0.5578 -0.0000 0.8300
vn -0.9607 -0.0000 -0.2776
vn 0.6200 -0.0000 0.7846
vn -0.0000 1.0000 -0.0000
vn 0.9412 -0.0000 -0.3378
vn 0.0608 -0.0000 -0.9981
vn 0.2484 -0.0000 -0.9687
vn 0.4125 -0.0000 -0.9109
vn 0.5578 -0.0000 -0.8300
vn 0.6876 -0.0000 -0.7261
vn 0.8030 -0.0000 -0.5960
vn 0.9012 -0.0000 -0.4334
vn 0.6972 -0.0000 0.7169
vn 0.8185 -0.0000 0.5745
vn 0.9042 -0.0000 0.4272
vn 0.9614 -0.0000 0.2751
vn 0.9933 -0.0000 0.1158
vn 0.9985 -0.0000 -0.0545
vn 0.9709 -0.0000 -0.2395
vn -0.4692 -0.0000 0.8831
vn -0.2948 -0.0000 0.9555
vn -0.1261 -0.0000 0.9920
vn 0.0385 -0.0000 0.9993
vn 0.2021 -0.0000 0.9794
vn 0.3675 -0.0000 0.9300
vn 0.5358 -0.0000 0.8444
vn -0.9842 -0.0000 -0.1770
vn -0.9999 -0.0000 0.0111
vn -0.9831 -0.0000 0.1829
vn -0.9398 -0.0000 0.3419
vn -0.8708 -0.0000 0.4916
vn -0.7733 -0.0000 0.6340
vn -0.6404 -0.0000 0.7680
vn -0.1451 -0.0000 -0.9894
vn -0.3267 -0.0000 -0.9451
vn -0.4825 -0.0000 -0.8759
vn -0.6180 -0.0000 -0.7862
vn -0.7371 -0.0000 -0.6758
vn -0.8412 -0.0000 -0.5408
vn -0.9271 -0.0000 -0.3747
vn -0.0000 -1.0000 -0.0000
vt -1.781084 0.001038
vt -1.781084 0.998177
vt -2.798288 0.998177
vt -2.798289 0.001038
vt 1.004330 0.001038
vt 1.004330 0.998177
vt -0.011163 0.998177
vt -0.011163 0.001038
vt -0.386589 0.001038
vt -0.386590 0.998177
vt -1.406513 0.998177
vt -1.406513 0.001038
vt 2.399680 0.001038
vt 2.399680 0.998177
vt 1.379756 0.998177
vt 1.379756 0.001038
vt 1.532160 0.647380
vt 1.540860 0.688148
vt 1.541768 0.732217
vt 1.534839 0.777376
vt 1.520419 0.821361
vt 1.499232 0.861966
vt 1.472340 0.897156
vt 1.441091 0.925165
vt 0.647220 1.501946
vt 0.610899 1.522990
vt 0.569044 1.537635
vt 0.523752 1.545146
vt 0.477296 1.545146
vt 0.432005 1.537635
vt 0.390149 1.522990
vt 0.353828 1.501946
vt -0.440043 0.925165
vt -0.471292 0.897156
vt -0.498183 0.861967
vt -0.519370 0.821361
vt -0.533790 0.777376
vt -0.540720 0.732217
vt -0.539812 0.688148
vt -0.531112 0.647380
vt -0.227069 -0.288367
vt -0.210124 -0.326464
vt -0.184895 -0.362650
vt -0.152646 -0.395111
vt -0.114996 -0.422220
vt -0.073831 -0.442617
vt -0.031217 -0.455279
vt 0.010710 -0.459571
vt 0.990338 -0.459571
vt 1.032265 -0.455279
vt 1.074879 -0.442617
vt 1.116044 -0.422220
vt 1.153694 -0.395111
vt 1.185943 -0.362650
vt 1.211172 -0.326463
vt 1.228117 -0.288367
vt 3.791456 0.001038
vt 3.791456 0.998177
vt 2.774251 0.998177
vt 2.774251 0.001038
vt -2.841515 0.998177
vt -2.841515 0.001038
vt -2.885375 0.998177
vt -2.885375 0.001038
vt -2.927670 0.998177
vt -2.927670 0.001038
vt -2.986254 0.998177
vt -2.986254 0.001038
vt 3.979419 0.001038
vt 3.979419 0.998177
vt 3.878542 0.998177
vt 3.878542 0.001038
vt 3.834682 0.998177
vt 3.834682 0.001038
vt 2.442694 0.001038
vt 2.442694 0.998177
vt 2.486532 0.001038
vt 2.486532 0.998177
vt 2.528994 0.001038
vt 2.528995 0.998177
vt 2.643994 0.001038
vt 2.643994 0.998177
vt 2.686766 0.001038
vt 2.686766 0.998177
vt 2.730922 0.001038
vt 2.730922 0.998177
vt 1.047792 0.001038
vt 1.047793 0.998177
vt 1.091967 0.001038
vt 1.091966 0.998177
vt 1.134638 0.001038
vt 1.134639 0.998177
vt 1.250976 0.001038
vt 1.250976 0.998177
vt 1.293147 0.001038
vt 1.293147 0.998177
vt 1.336804 0.001038
vt 1.336804 0.998177
vt -0.343637 0.001038
vt -0.343637 0.998177
vt -0.299981 0.001038
vt -0.299981 0.998177
vt -0.257810 0.001038
vt -0.257810 0.998177
vt -0.141472 0.001038
vt -0.141472 0.998177
vt -0.098800 0.001038
vt -0.098800 0.998177
vt -0.054626 0.001038
vt -0.054626 0.998177
vt -1.737757 0.001038
vt -1.737757 0.998177
vt -1.693600 0.001038
vt -1.693599 0.998177
vt -1.650827 0.001038
vt -1.650827 0.998177
vt -1.535828 0.001038
vt -1.535828 0.998177
vt -1.493365 0.001038
vt -1.493365 0.998177
vt -1.449527 0.001038
vt -1.449527 0.998177
vt 0.719203 0.467625
vt 0.726828 0.472043
vt 0.735615 0.475117
vt 0.745124 0.476694
vt 0.754876 0.476694
vt 0.764385 0.475117
vt 0.773171 0.472043
vt 0.780797 0.467625
vt 0.947457 0.346539
vt 0.954017 0.340659
vt 0.959663 0.333272
vt 0.964111 0.324747
vt 0.967138 0.315513
vt 0.968592 0.306033
vt 0.968402 0.296781
vt 0.966575 0.288222
vt 0.902747 0.091778
vt 0.899189 0.083780
vt 0.893893 0.076183
vt 0.887123 0.069368
vt 0.879219 0.063677
vt 0.870577 0.059395
vt 0.861631 0.056737
vt 0.852829 0.055836
vt 0.647171 0.055836
vt 0.638369 0.056737
vt 0.629423 0.059395
vt 0.620781 0.063677
vt 0.612877 0.069368
vt 0.606107 0.076183
vt 0.600811 0.083780
vt 0.597253 0.091778
vt 0.533425 0.288222
vt 0.531598 0.296781
vt 0.531407 0.306033
vt 0.532862 0.315513
vt 0.535890 0.324747
vt 0.540337 0.333272
vt 0.545983 0.340659
vt 0.552543 0.346539
s 0
usemtl ground.002
f 225/397/98 227/398/98 228/399/98 229/400/98 230/401/98 231/402/98 232/403/98 226/404/98 209/405/98 211/406/98 212/407/98 213/408/98 214/409/98 215/410/98 216/411/98 210/412/98 273/413/98 275/414/98 276/415/98 277/416/98 278/417/98 279/418/98 280/419/98 274/420/98 257/421/98 259/422/98 260/423/98 261/424/98 262/425/98 263/426/98 264/427/98 258/428/98 241/429/98 243/430/98 244/431/98 245/432/98 246/433/98 247/434/98 248/435/98 242/436/98
f 201/503/135 203/504/135 204/505/135 205/506/135 206/507/135 207/508/135 208/509/135 202/510/135 217/511/135 219/512/135 220/513/135 221/514/135 222/515/135 223/516/135 224/517/135 218/518/135 233/519/135 235/520/135 236/521/135 237/522/135 238/523/135 239/524/135 240/525/135 234/526/135 249/527/135 251/528/135 252/529/135 253/530/135 254/531/135 255/532/135 256/533/135 250/534/135 265/535/135 267/536/135 268/537/135 269/538/135 270/539/135 271/540/135 272/541/135 266/542/135
usemtl cliff.002
f 266/381/94 273/382/94 210/383/94 201/384/94
f 234/385/95 241/386/95 258/387/95 249/388/95
f 250/389/96 257/390/96 274/391/96 265/392/96
f 218/393/97 225/394/97 242/395/97 233/396/97
f 202/437/99 209/438/99 226/439/99 217/440/99
f 201/384/100 210/383/100 216/441/100 203/442/100
f 203/442/101 216/441/101 215/443/101 204/444/101
f 204/444/102 215/443/102 214/445/102 205/446/102
f 205/446/103 214/445/103 213/447/103 206/448/103
f 206/449/104 213/450/104 212/451/104 207/452/104
f 207/452/105 212/451/105 211/453/105 208/454/105
f 208/454/106 211/453/106 209/438/106 202/437/106
f 225/394/107 218/393/107 224/455/107 227/456/107
f 227/456/108 224/455/108 223/457/108 228/458/108
f 228/458/109 223/457/109 222/459/109 229/460/109
f 229/460/110 222/459/110 221/461/110 230/462/110
f 230/462/111 221/461/111 220/463/111 231/464/111
f 231/464/112 220/463/112 219/465/112 232/466/112
f 232/466/113 219/465/113 217/440/113 226/439/113
f 241/386/114 234/385/114 240/467/114 243/468/114
f 243/468/115 240/467/115 239/469/115 244/470/115
f 244/470/116 239/469/116 238/471/116 245/472/116
f 245/472/117 238/471/117 237/473/117 246/474/117
f 246/474/118 237/473/118 236/475/118 247/476/118
f 247/476/119 236/475/119 235/477/119 248/478/119
f 248/478/120 235/477/120 233/396/120 242/395/120
f 257/390/121 250/389/121 256/479/121 259/480/121
f 259/480/122 256/479/122 255/481/122 260/482/122
f 260/482/123 255/481/123 254/483/123 261/484/123
f 261/484/124 254/483/124 253/485/124 262/486/124
f 262/486/125 253/485/125 252/487/125 263/488/125
f 263/488/126 252/487/126 251/489/126 264/490/126
f 264/490/127 251/489/127 249/388/127 258/387/127
f 273/382/128 266/381/128 272/491/128 275/492/128
f 275/492/129 272/491/129 271/493/129 276/494/129
f 276/494/130 271/493/130 270/495/130 277/496/130
f 277/496/131 270/495/131 269/497/131 278/498/131
f 278/498/132 269/497/132 268/499/132 279/500/132
f 279/500/133 268/499/133 267/501/133 280/502/133
f 280/502/134 267/501/134 265/392/134 274/391/134
o Cylinder.004
v -24.908741 0.311394 4.705913
v -25.198305 0.311394 3.844105
v -25.007214 0.311394 4.620266
v -25.092104 0.311394 4.511963
v -25.159157 0.311394 4.386434
v -25.205006 0.311394 4.249974
v -25.227356 0.311394 4.109426
v -25.225084 0.311394 3.971836
v -25.198305 1.531830 3.844105
v -24.908741 1.531830 4.705913
v -25.225084 1.531830 3.971836
v -25.227356 1.531830 4.109426
v -25.205006 1.531830 4.249974
v -25.159157 1.531830 4.386434
v -25.092104 1.531830 4.511963
v -25.007214 1.531830 4.620266
v -24.265369 0.311394 0.935474
v -23.528584 0.311394 0.390213
v -24.212856 0.311394 0.815680
v -24.134678 0.311394 0.701502
v -24.034750 0.311394 0.598666
v -23.918087 0.311394 0.512328
v -23.790537 0.311394 0.446818
v -23.658495 0.311394 0.405421
v -23.528584 1.531830 0.390213
v -24.265369 1.531830 0.935474
v -23.658495 1.531830 0.405421
v -23.790537 1.531830 0.446818
v -23.918087 1.531830 0.512328
v -24.034750 1.531830 0.598666
v -24.134678 1.531830 0.701502
v -24.212856 1.531830 0.815680
v -20.443804 0.311394 0.347649
v -19.699636 0.311394 0.874912
v -20.313707 0.311394 0.359331
v -20.181120 0.311394 0.397257
v -20.052691 0.311394 0.459525
v -19.934856 0.311394 0.543012
v -19.833530 0.311394 0.643533
v -19.753790 0.311394 0.756047
v -19.699636 1.531830 0.874912
v -20.443804 1.531830 0.347649
v -19.753790 1.531830 0.756047
v -19.833530 1.531830 0.643533
v -19.934856 1.531830 0.543012
v -20.052691 1.531830 0.459525
v -20.181120 1.531830 0.397257
v -20.313707 1.531830 0.359331
v -18.732786 0.311394 3.752458
v -19.007599 0.311394 4.622096
v -18.704180 0.311394 3.879907
v -18.699804 0.311394 4.017742
v -18.719875 0.311394 4.159053
v -18.763390 0.311394 4.296753
v -18.828163 0.311394 4.423937
v -18.910952 0.311394 4.534228
v -19.007599 1.531830 4.622096
v -18.732786 1.531830 3.752458
v -18.910952 1.531830 4.534228
v -18.828163 1.531830 4.423937
v -18.763390 1.531830 4.296753
v -18.719875 1.531830 4.159053
v -18.699804 1.531830 4.017742
v -18.704180 1.531830 3.879907
v -21.492226 0.311394 6.450840
v -22.408773 0.311394 6.461094
v -21.604963 0.311394 6.517161
v -21.735212 0.311394 6.563893
v -21.876442 0.311394 6.588693
v -22.021568 0.311394 6.590317
v -22.163319 0.311394 6.568683
v -22.294580 0.311394 6.524877
v -22.408773 1.531830 6.461094
v -21.492226 1.531830 6.450840
v -22.294580 1.531830 6.524877
v -22.163319 1.531830 6.568683
v -22.021568 1.531830 6.590317
v -21.876442 1.531830 6.588693
v -21.735212 1.531830 6.563893
v -21.604963 1.531830 6.517161
vn -0.5746 -0.0000 0.8184
vn 0.9479 -0.0000 -0.3185
vn 0.5928 -0.0000 0.8054
vn -0.0138 -0.0000 -0.9999
vn -0.0000 1.0000 -0.0000
vn -0.9522 -0.0000 -0.3054
vn -0.6563 -0.0000 0.7545
vn -0.7870 -0.0000 0.6169
vn -0.8821 -0.0000 0.4712
vn -0.9479 -0.0000 0.3185
vn -0.9876 -0.0000 0.1570
vn -0.9999 -0.0000 -0.0165
vn -0.9787 -0.0000 -0.2052
vn -0.1163 -0.0000 -0.9932
vn -0.2992 -0.0000 -0.9542
vn -0.4569 -0.0000 -0.8895
vn -0.5949 -0.0000 -0.8038
vn -0.7172 -0.0000 -0.6969
vn -0.8251 -0.0000 -0.5650
vn -0.9159 -0.0000 -0.4015
vn 0.9100 -0.0000 -0.4146
vn 0.8159 -0.0000 -0.5782
vn 0.7043 -0.0000 -0.7099
vn 0.5781 -0.0000 -0.8159
vn 0.4363 -0.0000 -0.8998
vn 0.2750 -0.0000 -0.9614
vn 0.0894 -0.0000 -0.9960
vn 0.6727 -0.0000 0.7399
vn 0.7998 -0.0000 0.6003
vn 0.8911 -0.0000 0.4538
vn 0.9535 -0.0000 0.3013
vn 0.9901 -0.0000 0.1406
vn 0.9995 -0.0000 -0.0317
vn 0.9757 -0.0000 -0.2190
vn -0.4876 -0.0000 0.8730
vn -0.3166 -0.0000 0.9486
vn -0.1509 -0.0000 0.9886
vn 0.0112 -0.0000 0.9999
vn 0.1730 -0.0000 0.9849
vn 0.3377 -0.0000 0.9412
vn 0.5070 -0.0000 0.8619
vn -0.0000 -1.0000 -0.0000
vt -0.500423 0.009454
vt -0.500423 0.981307
vt -0.947211 0.981307
vt -0.947211 0.009454
vt 0.723018 0.009454
vt 0.723018 0.981307
vt 0.276982 0.981307
vt 0.276982 0.009454
vt 0.112083 0.009454
vt 0.112083 0.981307
vt -0.335900 0.981307
vt -0.335900 0.009454
vt 1.335899 0.009454
vt 1.335899 0.981307
vt 0.887917 0.981307
vt 0.887917 0.009454
vt 0.874357 0.542171
vt 0.877391 0.556390
vt 0.877708 0.571759
vt 0.875291 0.587510
vt 0.870262 0.602850
vt 0.862873 0.617012
vt 0.853494 0.629285
vt 0.842595 0.639053
vt 0.565720 0.840215
vt 0.553052 0.847554
vt 0.538455 0.852662
vt 0.522658 0.855281
vt 0.506456 0.855281
vt 0.490660 0.852662
vt 0.476062 0.847554
vt 0.463395 0.840215
vt 0.186520 0.639053
vt 0.175621 0.629285
vt 0.166242 0.617012
vt 0.158853 0.602850
vt 0.153824 0.587510
vt 0.151407 0.571759
vt 0.151724 0.556390
vt 0.154758 0.542171
vt 0.260798 0.215814
vt 0.266707 0.202528
vt 0.275507 0.189907
vt 0.286754 0.178586
vt 0.299885 0.169131
vt 0.314242 0.162017
vt 0.329104 0.157601
vt 0.343727 0.156104
vt 0.685388 0.156104
vt 0.700011 0.157601
vt 0.714873 0.162017
vt 0.729230 0.169131
vt 0.742361 0.178586
vt 0.753608 0.189907
vt 0.762407 0.202528
vt 0.768317 0.215814
vt 1.947211 0.009454
vt 1.947211 0.981307
vt 1.500423 0.981307
vt 1.500423 0.009454
vt -0.966197 0.981307
vt -0.966197 0.009454
vt -0.985462 0.981307
vt -0.985462 0.009454
vt -1.004039 0.981307
vt -1.004039 0.009454
vt -1.029771 0.981307
vt -1.029771 0.009454
vt 2.029771 0.009454
vt 2.029771 0.981307
vt 1.985462 0.981307
vt 1.985462 0.009454
vt 1.966197 0.981307
vt 1.966197 0.009454
vt 1.354793 0.009454
vt 1.354793 0.981307
vt 1.374048 0.009454
vt 1.374048 0.981307
vt 1.392699 0.009454
vt 1.392699 0.981307
vt 1.443210 0.009454
vt 1.443210 0.981307
vt 1.461997 0.009454
vt 1.461997 0.981307
vt 1.481392 0.009454
vt 1.481392 0.981307
vt 0.742108 0.009454
vt 0.742108 0.981307
vt 0.761511 0.009454
vt 0.761511 0.981307
vt 0.780254 0.009454
vt 0.780254 0.981307
vt 0.831353 0.009454
vt 0.831353 0.981307
vt 0.849876 0.009454
vt 0.849876 0.981307
vt 0.869051 0.009454
vt 0.869051 0.981307
vt 0.130949 0.009454
vt 0.130949 0.981307
vt 0.150124 0.009454
vt 0.150124 0.981307
vt 0.168647 0.009454
vt 0.168647 0.981307
vt 0.219746 0.009454
vt 0.219746 0.981307
vt 0.238489 0.009454
vt 0.238489 0.981307
vt 0.257892 0.009454
vt 0.257892 0.981307
vt -0.481392 0.009454
vt -0.481392 0.981307
vt -0.461997 0.009454
vt -0.461997 0.981307
vt -0.443210 0.009454
vt -0.443210 0.981307
vt -0.392699 0.009454
vt -0.392699 0.981307
vt -0.374048 0.009454
vt -0.374048 0.981307
vt -0.354793 0.009454
vt -0.354793 0.981307
vt 0.719203 0.467625
vt 0.726828 0.472043
vt 0.735615 0.475117
vt 0.745124 0.476694
vt 0.754876 0.476694
vt 0.764385 0.475117
vt 0.773171 0.472043
vt 0.780797 0.467625
vt 0.947457 0.346539
vt 0.954017 0.340659
vt 0.959663 0.333272
vt 0.964111 0.324747
vt 0.967138 0.315513
vt 0.968592 0.306033
vt 0.968402 0.296781
vt 0.966575 0.288222
vt 0.902747 0.091778
vt 0.899189 0.083780
vt 0.893893 0.076183
vt 0.887123 0.069368
vt 0.879219 0.063677
vt 0.870577 0.059395
vt 0.861631 0.056737
vt 0.852829 0.055836
vt 0.647171 0.055836
vt 0.638369 0.056737
vt 0.629423 0.059395
vt 0.620781 0.063677
vt 0.612877 0.069368
vt 0.606107 0.076183
vt 0.600811 0.083780
vt 0.597253 0.091778
vt 0.533425 0.288222
vt 0.531598 0.296781
vt 0.531407 0.306033
vt 0.532862 0.315513
vt 0.535890 0.324747
vt 0.540337 0.333272
vt 0.545983 0.340659
vt 0.552543 0.346539
s 0
usemtl ground.002
f 305/559/140 307/560/140 308/561/140 309/562/140 310/563/140 311/564/140 312/565/140 306/566/140 289/567/140 291/568/140 292/569/140 293/570/140 294/571/140 295/572/140 296/573/140 290/574/140 353/575/140 355/576/140 356/577/140 357/578/140 358/579/140 359/580/140 360/581/140 354/582/140 337/583/140 339/584/140 340/585/140 341/586/140 342/587/140 343/588/140 344/589/140 338/590/140 321/591/140 323/592/140 324/593/140 325/594/140 326/595/140 327/596/140 328/597/140 322/598/140
f 281/665/177 283/666/177 284/667/177 285/668/177 286/669/177 287/670/177 288/671/177 282/672/177 297/673/177 299/674/177 300/675/177 301/676/177 302/677/177 303/678/177 304/679/177 298/680/177 313/681/177 315/682/177 316/683/177 317/684/177 318/685/177 319/686/177 320/687/177 314/688/177 329/689/177 331/690/177 332/691/177 333/692/177 334/693/177 335/694/177 336/695/177 330/696/177 345/697/177 347/698/177 348/699/177 349/700/177 350/701/177 351/702/177 352/703/177 346/704/177
usemtl cliff.002
f 346/543/136 353/544/136 290/545/136 281/546/136
f 314/547/137 321/548/137 338/549/137 329/550/137
f 330/551/138 337/552/138 354/553/138 345/554/138
f 298/555/139 305/556/139 322/557/139 313/558/139
f 282/599/141 289/600/141 306/601/141 297/602/141
f 281/546/142 290/545/142 296/603/142 283/604/142
f 283/604/143 296/603/143 295/605/143 284/606/143
f 284/606/144 295/605/144 294/607/144 285/608/144
f 285/608/145 294/607/145 293/609/145 286/610/145
f 286/611/146 293/612/146 292/613/146 287/614/146
f 287/614/147 292/613/147 291/615/147 288/616/147
f 288/616/148 291/615/148 289/600/148 282/599/148
f 305/556/149 298/555/149 304/617/149 307/618/149
f 307/618/150 304/617/150 303/619/150 308/620/150
f 308/620/151 303/619/151 302/621/151 309/622/151
f 309/622/152 302/621/152 301/623/152 310/624/152
f 310/624/153 301/623/153 300/625/153 311/626/153
f 311/626/154 300/625/154 299/627/154 312/628/154
f 312/628/155 299/627/155 297/602/155 306/601/155
f 321/548/156 314/547/156 320/629/156 323/630/156
f 323/630/157 320/629/157 319/631/157 324/632/157
f 324/632/158 319/631/158 318/633/158 325/634/158
f 325/634/159 318/633/159 317/635/159 326/636/159
f 326/636/160 317/635/160 316/637/160 327/638/160
f 327/638/161 316/637/161 315/639/161 328/640/161
f 328/640/162 315/639/162 313/558/162 322/557/162
f 337/552/163 330/551/163 336/641/163 339/642/163
f 339/642/164 336/641/164 335/643/164 340/644/164
f 340/644/165 335/643/165 334/645/165 341/646/165
f 341/646/166 334/645/166 333/647/166 342/648/166
f 342/648/167 333/647/167 332/649/167 343/650/167
f 343/650/168 332/649/168 331/651/168 344/652/168
f 344/652/169 331/651/169 329/550/169 338/549/169
f 353/544/170 346/543/170 352/653/170 355/654/170
f 355/654/171 352/653/171 351/655/171 356/656/171
f 356/656/172 351/655/172 350/657/172 357/658/172
f 357/658/173 350/657/173 349/659/173 358/660/173
f 358/660/174 349/659/174 348/661/174 359/662/174
f 359/662/175 348/661/175 347/663/175 360/664/175
f 360/664/176 347/663/176 345/554/176 354/553/176
o Cylinder.005
v 19.105566 0.362540 -24.884953
v 20.602791 0.362540 -23.878820
v 19.364031 0.362540 -24.869198
v 19.628506 0.362540 -24.801376
v 19.885731 0.362540 -24.684887
v 20.122803 0.362540 -24.525576
v 20.327839 0.362540 -24.331427
v 20.490555 0.362540 -24.112177
v 20.602791 2.110823 -23.878820
v 19.105566 2.110823 -24.884953
v 20.490555 2.110823 -24.112177
v 20.327839 2.110823 -24.331427
v 20.122803 2.110823 -24.525576
v 19.885731 2.110823 -24.684887
v 19.628506 2.110823 -24.801376
v 19.364031 2.110823 -24.869198
v 22.650131 0.362540 -18.174391
v 22.149763 0.362540 -16.425915
v 22.712284 0.362540 -17.922421
v 22.727261 0.362540 -17.648270
v 22.694307 0.362540 -17.365679
v 22.615078 0.362540 -17.088823
v 22.493546 0.362540 -16.831581
v 22.335804 0.362540 -16.606857
v 22.149763 2.110823 -16.425915
v 22.650131 2.110823 -18.174391
v 22.335804 2.110823 -16.606857
v 22.493546 2.110823 -16.831581
v 22.615078 2.110823 -17.088823
v 22.694307 2.110823 -17.365679
v 22.727261 2.110823 -17.648270
v 22.712284 2.110823 -17.922421
v 17.347139 0.362540 -12.630678
v 15.538904 0.362540 -12.560956
v 17.128307 0.362540 -12.491827
v 16.873838 0.362540 -12.391260
v 16.596489 0.362540 -12.334023
v 16.310171 0.362540 -12.322983
v 16.029238 0.362540 -12.358694
v 15.767778 0.362540 -12.439367
v 15.538904 2.110823 -12.560956
v 17.347139 2.110823 -12.630678
v 15.767778 2.110823 -12.439367
v 16.029238 2.110823 -12.358694
v 16.310171 2.110823 -12.322983
v 16.596489 2.110823 -12.334023
v 16.873838 2.110823 -12.391260
v 17.128307 2.110823 -12.491827
v 10.539719 0.362540 -15.920395
v 9.921107 0.362540 -17.620953
v 10.340672 0.362540 -16.086369
v 10.167196 0.362540 -16.297970
v 10.027992 0.362540 -16.544590
v 9.930040 0.362540 -16.813858
v 9.878252 0.362540 -17.092276
v 9.875224 0.362540 -17.365881
v 9.921107 2.110823 -17.620953
v 10.539719 2.110823 -15.920395
v 9.875224 2.110823 -17.365881
v 9.878252 2.110823 -17.092276
v 9.930040 2.110823 -16.813858
v 10.027992 2.110823 -16.544590
v 10.167196 2.110823 -16.297970
v 10.340672 2.110823 -16.086369
v 11.620583 0.362540 -23.501495
v 13.050425 0.362540 -24.625368
v 11.717827 0.362540 -23.742109
v 11.866300 0.362540 -23.973064
v 12.058559 0.362540 -24.182777
v 12.284963 0.362540 -24.360733
v 12.534158 0.362540 -24.498009
v 12.793650 0.362540 -24.587719
v 13.050425 2.110823 -24.625368
v 11.620583 2.110823 -23.501495
v 12.793650 2.110823 -24.587719
v 12.534158 2.110823 -24.498009
v 12.284963 2.110823 -24.360733
v 12.058559 2.110823 -24.182777
v 11.866300 2.110823 -23.973064
v 11.717827 2.110823 -23.742109
vn -0.0428 -0.0000 -0.9991
vn -0.5578 -0.0000 0.8300
vn -0.9607 -0.0000 -0.2776
vn 0.6200 -0.0000 0.7846
vn -0.0000 1.0000 -0.0000
vn 0.9412 -0.0000 -0.3378
vn 0.0608 -0.0000 -0.9981
vn 0.2484 -0.0000 -0.9687
vn 0.4125 -0.0000 -0.9109
vn 0.5578 -0.0000 -0.8300
vn 0.6876 -0.0000 -0.7261
vn 0.8030 -0.0000 -0.5960
vn 0.9012 -0.0000 -0.4334
vn 0.6972 -0.0000 0.7169
vn 0.8185 -0.0000 0.5745
vn 0.9042 -0.0000 0.4272
vn 0.9614 -0.0000 0.2751
vn 0.9933 -0.0000 0.1158
vn 0.9985 -0.0000 -0.0545
vn 0.9709 -0.0000 -0.2395
vn -0.4692 -0.0000 0.8831
vn -0.2948 -0.0000 0.9555
vn -0.1261 -0.0000 0.9920
vn 0.0385 -0.0000 0.9993
vn 0.2021 -0.0000 0.9794
vn 0.3675 -0.0000 0.9300
vn 0.5358 -0.0000 0.8444
vn -0.9842 -0.0000 -0.1770
vn -0.9999 -0.0000 0.0111
vn -0.9831 -0.0000 0.1829
vn -0.9398 -0.0000 0.3419
vn -0.8708 -0.0000 0.4916
vn -0.7733 -0.0000 0.6340
vn -0.6404 -0.0000 0.7680
vn -0.1451 -0.0000 -0.9894
vn -0.3267 -0.0000 -0.9451
vn -0.4825 -0.0000 -0.8759
vn -0.6180 -0.0000 -0.7862
vn -0.7371 -0.0000 -0.6758
vn -0.8412 -0.0000 -0.5408
vn -0.9271 -0.0000 -0.3747
vn -0.0000 -1.0000 -0.0000
vt -1.254992 0.019050
vt -1.254991 0.987520
vt -2.038769 0.987520
vt -2.038769 0.019050
vt 0.891229 0.019050
vt 0.891230 0.987520
vt 0.108770 0.987520
vt 0.108771 0.019050
vt -0.180503 0.019050
vt -0.180504 0.987520
vt -0.966376 0.987520
vt -0.966376 0.019050
vt 1.966376 0.019050
vt 1.966376 0.987520
vt 1.180503 0.987520
vt 1.180503 0.019050
vt 1.109711 0.566667
vt 1.114735 0.590211
vt 1.115259 0.615661
vt 1.111258 0.641740
vt 1.102930 0.667141
vt 1.090695 0.690590
vt 1.075165 0.710912
vt 1.057119 0.727087
vt 0.598661 1.060176
vt 0.577686 1.072329
vt 0.553515 1.080786
vt 0.527359 1.085124
vt 0.500531 1.085124
vt 0.474375 1.080786
vt 0.450204 1.072329
vt 0.429228 1.060176
vt -0.029229 0.727087
vt -0.047275 0.710912
vt -0.062805 0.690590
vt -0.075040 0.667141
vt -0.083368 0.641740
vt -0.087370 0.615661
vt -0.086845 0.590211
vt -0.081821 0.566667
vt 0.093763 0.026277
vt 0.103548 0.004276
vt 0.118118 -0.016621
vt 0.136742 -0.035367
vt 0.158484 -0.051022
vt 0.182257 -0.062802
vt 0.206866 -0.070114
vt 0.231079 -0.072593
vt 0.796811 -0.072593
vt 0.821023 -0.070114
vt 0.845633 -0.062802
vt 0.869405 -0.051022
vt 0.891148 -0.035367
vt 0.909772 -0.016621
vt 0.924341 0.004276
vt 0.934127 0.026277
vt 3.038769 0.019050
vt 3.038769 0.987520
vt 2.254991 0.987520
vt 2.254991 0.019050
vt -2.072076 0.987520
vt -2.072076 0.019050
vt -2.105871 0.987520
vt -2.105871 0.019050
vt -2.138460 0.987520
vt -2.138460 0.019050
vt -2.183600 0.987520
vt -2.183600 0.019050
vt 3.183600 0.019050
vt 3.183600 0.987520
vt 3.105871 0.987520
vt 3.105871 0.019050
vt 3.072076 0.987520
vt 3.072076 0.019050
vt 1.999519 0.019050
vt 1.999519 0.987520
vt 2.033298 0.019050
vt 2.033298 0.987520
vt 2.066016 0.019050
vt 2.066016 0.987520
vt 2.154625 0.019050
vt 2.154625 0.987520
vt 2.187582 0.019050
vt 2.187582 0.987520
vt 2.221606 0.019050
vt 2.221606 0.987520
vt 0.924718 0.019050
vt 0.924719 0.987520
vt 0.958756 0.019050
vt 0.958755 0.987520
vt 0.991635 0.019050
vt 0.991635 0.987520
vt 1.081276 0.019050
vt 1.081276 0.987520
vt 1.113770 0.019050
vt 1.113770 0.987520
vt 1.147408 0.019050
vt 1.147408 0.987520
vt -0.147408 0.019050
vt -0.147408 0.987520
vt -0.113770 0.019050
vt -0.113770 0.987520
vt -0.081276 0.019050
vt -0.081276 0.987520
vt 0.008365 0.019050
vt 0.008365 0.987520
vt 0.041244 0.019050
vt 0.041244 0.987520
vt 0.075282 0.019050
vt 0.075282 0.987520
vt -1.221606 0.019050
vt -1.221606 0.987520
vt -1.187583 0.019050
vt -1.187583 0.987520
vt -1.154626 0.019050
vt -1.154626 0.987520
vt -1.066016 0.019050
vt -1.066016 0.987520
vt -1.033298 0.019050
vt -1.033297 0.987520
vt -0.999519 0.019050
vt -0.999519 0.987520
vt 0.719203 0.467625
vt 0.726828 0.472043
vt 0.735615 0.475117
vt 0.745124 0.476694
vt 0.754876 0.476694
vt 0.764385 0.475117
vt 0.773171 0.472043
vt 0.780797 0.467625
vt 0.947457 0.346539
vt 0.954017 0.340659
vt 0.959663 0.333272
vt 0.964111 0.324747
vt 0.967138 0.315513
vt 0.968592 0.306033
vt 0.968402 0.296781
vt 0.966575 0.288222
vt 0.902747 0.091778
vt 0.899189 0.083780
vt 0.893893 0.076183
vt 0.887123 0.069368
vt 0.879219 0.063677
vt 0.870577 0.059395
vt 0.861631 0.056737
vt 0.852829 0.055836
vt 0.647171 0.055836
vt 0.638369 0.056737
vt 0.629423 0.059395
vt 0.620781 0.063677
vt 0.612877 0.069368
vt 0.606107 0.076183
vt 0.600811 0.083780
vt 0.597253 0.091778
vt 0.533425 0.288222
vt 0.531598 0.296781
vt 0.531407 0.306033
vt 0.532862 0.315513
vt 0.535890 0.324747
vt 0.540337 0.333272
vt 0.545983 0.340659
vt 0.552543 0.346539
s 0
usemtl ground.002
f 385/721/182 387/722/182 388/723/182 389/724/182 390/725/182 391/726/182 392/727/182 386/728/182 369/729/182 371/730/182 372/731/182 373/732/182 374/733/182 375/734/182 376/735/182 370/736/182 433/737/182 435/738/182 436/739/182 437/740/182 438/741/182 439/742/182 440/743/182 434/744/182 417/745/182 419/746/182 420/747/182 421/748/182 422/749/182 423/750/182 424/751/182 418/752/182 401/753/182 403/754/182 404/755/182 405/756/182 406/757/182 407/758/182 408/759/182 402/760/182
f 361/827/219 363/828/219 364/829/219 365/830/219 366/831/219 367/832/219 368/833/219 362/834/219 377/835/219 379/836/219 380/837/219 381/838/219 382/839/219 383/840/219 384/841/219 378/842/219 393/843/219 395/844/219 396/845/219 397/846/219 398/847/219 399/848/219 400/849/219 394/850/219 409/851/219 411/852/219 412/853/219 413/854/219 414/855/219 415/856/219 416/857/219 410/858/219 425/859/219 427/860/219 428/861/219 429/862/219 430/863/219 431/864/219 432/865/219 426/866/219
usemtl cliff.002
f 426/705/178 433/706/178 370/707/178 361/708/178
f 394/709/179 401/710/179 418/711/179 409/712/179
f 410/713/180 417/714/180 434/715/180 425/716/180
f 378/717/181 385/718/181 402/719/181 393/720/181
f 362/761/183 369/762/183 386/763/183 377/764/183
f 361/708/184 370/707/184 376/765/184 363/766/184
f 363/766/185 376/765/185 375/767/185 364/768/185
f 364/768/186 375/767/186 374/769/186 365/770/186
f 365/770/187 374/769/187 373/771/187 366/772/187
f 366/773/188 373/774/188 372/775/188 367/776/188
f 367/776/189 372/775/189 371/777/189 368/778/189
f 368/778/190 371/777/190 369/762/190 362/761/190
f 385/718/191 378/717/191 384/779/191 387/780/191
f 387/780/192 384/779/192 383/781/192 388/782/192
f 388/782/193 383/781/193 382/783/193 389/784/193
f 389/784/194 382/783/194 381/785/194 390/786/194
f 390/786/195 381/785/195 380/787/195 391/788/195
f 391/788/196 380/787/196 379/789/196 392/790/196
f 392/790/197 379/789/197 377/764/197 386/763/197
f 401/710/198 394/709/198 400/791/198 403/792/198
f 403/792/199 400/791/199 399/793/199 404/794/199
f 404/794/200 399/793/200 398/795/200 405/796/200
f 405/796/201 398/795/201 397/797/201 406/798/201
f 406/798/202 397/797/202 396/799/202 407/800/202
f 407/800/203 396/799/203 395/801/203 408/802/203
f 408/802/204 395/801/204 393/720/204 402/719/204
f 417/714/205 410/713/205 416/803/205 419/804/205
f 419/804/206 416/803/206 415/805/206 420/806/206
f 420/806/207 415/805/207 414/807/207 421/808/207
f 421/808/208 414/807/208 413/809/208 422/810/208
f 422/810/209 413/809/209 412/811/209 423/812/209
f 423/812/210 412/811/210 411/813/210 424/814/210
f 424/814/211 411/813/211 409/712/211 418/711/211
f 433/706/212 426/705/212 432/815/212 435/816/212
f 435/816/213 432/815/213 431/817/213 436/818/213
f 436/818/214 431/817/214 430/819/214 437/820/214
f 437/820/215 430/819/215 429/821/215 438/822/215
f 438/822/216 429/821/216 428/823/216 439/824/216
f 439/824/217 428/823/217 427/825/217 440/826/217
f 440/826/218 427/825/218 425/716/218 434/715/218
o Cylinder.006
v 19.412127 1.959890 -22.167183
v 20.334957 1.959890 -21.547043
v 19.571434 1.959890 -22.157473
v 19.734446 1.959890 -22.115669
v 19.892988 1.959890 -22.043871
v 20.039112 1.959890 -21.945677
v 20.165487 1.959890 -21.826012
v 20.265779 1.959890 -21.690874
v 20.334957 3.179093 -21.547043
v 19.412127 3.179093 -22.167183
v 20.265779 3.179093 -21.690874
v 20.165487 3.179093 -21.826012
v 20.039112 3.179093 -21.945677
v 19.892988 3.179093 -22.043871
v 19.734446 3.179093 -22.115669
v 19.571434 3.179093 -22.157473
v 21.596857 1.959890 -18.031055
v 21.288450 1.959890 -16.953362
v 21.635166 1.959890 -17.875751
v 21.644398 1.959890 -17.706774
v 21.624086 1.959890 -17.532597
v 21.575253 1.959890 -17.361954
v 21.500345 1.959890 -17.203400
v 21.403118 1.959890 -17.064888
v 21.288450 3.179093 -16.953362
v 21.596857 3.179093 -18.031055
v 21.403118 3.179093 -17.064888
v 21.500345 3.179093 -17.203400
v 21.575253 3.179093 -17.361954
v 21.624086 3.179093 -17.532597
v 21.644398 3.179093 -17.706774
v 21.635166 3.179093 -17.875751
v 18.328300 1.959890 -14.614127
v 17.213776 1.959890 -14.571153
v 18.193420 1.959890 -14.528544
v 18.036575 1.959890 -14.466558
v 17.865629 1.959890 -14.431280
v 17.689154 1.959890 -14.424475
v 17.515997 1.959890 -14.446486
v 17.354843 1.959890 -14.496210
v 17.213776 3.179093 -14.571153
v 18.328300 3.179093 -14.614127
v 17.354843 3.179093 -14.496210
v 17.515997 3.179093 -14.446486
v 17.689154 3.179093 -14.424475
v 17.865629 3.179093 -14.431280
v 18.036575 3.179093 -14.466558
v 18.193420 3.179093 -14.528544
v 14.132472 1.959890 -16.641781
v 13.751184 1.959890 -17.689938
v 14.009787 1.959890 -16.744080
v 13.902864 1.959890 -16.874502
v 13.817063 1.959890 -17.026508
v 13.756689 1.959890 -17.192476
v 13.724770 1.959890 -17.364082
v 13.722902 1.959890 -17.532721
v 13.751184 3.179093 -17.689938
v 14.132472 3.179093 -16.641781
v 13.722902 3.179093 -17.532721
v 13.724770 3.179093 -17.364082
v 13.756689 3.179093 -17.192476
v 13.817063 3.179093 -17.026508
v 13.902864 3.179093 -16.874502
v 14.009787 3.179093 -16.744080
v 14.798674 1.959890 -21.314476
v 15.679974 1.959890 -22.007185
v 14.858611 1.959890 -21.462780
v 14.950125 1.959890 -21.605131
v 15.068625 1.959890 -21.734390
v 15.208172 1.959890 -21.844074
v 15.361766 1.959890 -21.928686
v 15.521707 1.959890 -21.983980
v 15.679974 3.179093 -22.007185
v 14.798674 3.179093 -21.314476
v 15.521707 3.179093 -21.983980
v 15.361766 3.179093 -21.928686
v 15.208172 3.179093 -21.844074
v 15.068625 3.179093 -21.734390
v 14.950125 3.179093 -21.605131
v 14.858611 3.179093 -21.462780
vn -0.0428 -0.0000 -0.9991
vn -0.5578 -0.0000 0.8300
vn -0.9607 -0.0000 -0.2776
vn 0.6200 -0.0000 0.7846
vn -0.0000 1.0000 -0.0000
vn 0.9412 -0.0000 -0.3378
vn 0.0608 -0.0000 -0.9981
vn 0.2484 -0.0000 -0.9687
vn 0.4125 -0.0000 -0.9109
vn 0.5578 -0.0000 -0.8300
vn 0.6876 -0.0000 -0.7261
vn 0.8030 -0.0000 -0.5960
vn 0.9012 -0.0000 -0.4334
vn 0.6972 -0.0000 0.7169
vn 0.8185 -0.0000 0.5745
vn 0.9042 -0.0000 0.4272
vn 0.9614 -0.0000 0.2751
vn 0.9933 -0.0000 0.1158
vn 0.9985 -0.0000 -0.0545
vn 0.9709 -0.0000 -0.2395
vn -0.4692 -0.0000 0.8831
vn -0.2948 -0.0000 0.9555
vn -0.1261 -0.0000 0.9920
vn 0.0385 -0.0000 0.9993
vn 0.2021 -0.0000 0.9794
vn 0.3675 -0.0000 0.9300
vn 0.5358 -0.0000 0.8444
vn -0.9842 -0.0000 -0.1770
vn -0.9999 -0.0000 0.0111
vn -0.9831 -0.0000 0.1829
vn -0.9398 -0.0000 0.3419
vn -0.8708 -0.0000 0.4916
vn -0.7733 -0.0000 0.6340
vn -0.6404 -0.0000 0.7680
vn -0.1451 -0.0000 -0.9894
vn -0.3267 -0.0000 -0.9451
vn -0.4825 -0.0000 -0.8759
vn -0.6180 -0.0000 -0.7862
vn -0.7371 -0.0000 -0.6758
vn -0.8412 -0.0000 -0.5408
vn -0.9271 -0.0000 -0.3747
vn -0.0000 -1.0000 -0.0000
vt -0.678542 0.025362
vt -0.678541 0.981208
vt -1.204877 0.981208
vt -1.204877 0.025362
vt 0.762725 0.025362
vt 0.762725 0.981208
vt 0.237275 0.981208
vt 0.237275 0.025362
vt 0.043017 0.025362
vt 0.043017 0.981208
vt -0.484726 0.981208
vt -0.484726 0.025362
vt 1.484726 0.025362
vt 1.484726 0.981208
vt 0.956983 0.981208
vt 0.956983 0.025362
vt 0.863198 0.550520
vt 0.866445 0.565737
vt 0.866784 0.582185
vt 0.864198 0.599040
vt 0.858815 0.615456
vt 0.850908 0.630612
vt 0.840871 0.643745
vt 0.829208 0.654199
vt 0.532908 0.869474
vt 0.519352 0.877328
vt 0.503730 0.882794
vt 0.486825 0.885598
vt 0.469486 0.885598
vt 0.452582 0.882794
vt 0.436960 0.877328
vt 0.423404 0.869474
vt 0.127104 0.654199
vt 0.115441 0.643745
vt 0.105404 0.630612
vt 0.097496 0.615456
vt 0.092114 0.599040
vt 0.089528 0.582185
vt 0.089866 0.565737
vt 0.093114 0.550520
vt 0.206593 0.201267
vt 0.212917 0.187048
vt 0.222334 0.173543
vt 0.234370 0.161427
vt 0.248422 0.151309
vt 0.263786 0.143696
vt 0.279692 0.138970
vt 0.295340 0.137368
vt 0.660971 0.137368
vt 0.676620 0.138970
vt 0.692525 0.143696
vt 0.707889 0.151309
vt 0.721941 0.161427
vt 0.733978 0.173543
vt 0.743394 0.187048
vt 0.749719 0.201267
vt 2.204877 0.025362
vt 2.204877 0.981208
vt 1.678542 0.981208
vt 1.678542 0.025362
vt -1.227244 0.981208
vt -1.227244 0.025362
vt -1.249939 0.981208
vt -1.249939 0.025362
vt -1.271823 0.981208
vt -1.271823 0.025362
vt -1.302137 0.981208
vt -1.302137 0.025362
vt 2.302137 0.025362
vt 2.302137 0.981208
vt 2.249939 0.981208
vt 2.249939 0.025362
vt 2.227244 0.981208
vt 2.227244 0.025362
vt 1.506983 0.025362
vt 1.506983 0.981208
vt 1.529666 0.025362
vt 1.529666 0.981208
vt 1.551638 0.025362
vt 1.551638 0.981208
vt 1.611142 0.025362
vt 1.611142 0.981208
vt 1.633274 0.025362
vt 1.633274 0.981208
vt 1.656122 0.025362
vt 1.656122 0.981208
vt 0.785214 0.025362
vt 0.785214 0.981208
vt 0.808071 0.025362
vt 0.808071 0.981208
vt 0.830151 0.025362
vt 0.830151 0.981208
vt 0.890348 0.025362
vt 0.890348 0.981208
vt 0.912169 0.025362
vt 0.912169 0.981208
vt 0.934758 0.025362
vt 0.934758 0.981208
vt 0.065241 0.025362
vt 0.065242 0.981208
vt 0.087831 0.025362
vt 0.087831 0.981208
vt 0.109651 0.025362
vt 0.109651 0.981208
vt 0.169849 0.025362
vt 0.169849 0.981208
vt 0.191929 0.025362
vt 0.191929 0.981208
vt 0.214786 0.025362
vt 0.214786 0.981208
vt -0.656123 0.025362
vt -0.656122 0.981208
vt -0.633274 0.025362
vt -0.633274 0.981208
vt -0.611142 0.025362
vt -0.611142 0.981208
vt -0.551638 0.025362
vt -0.551638 0.981208
vt -0.529666 0.025362
vt -0.529666 0.981208
vt -0.506983 0.025362
vt -0.506983 0.981208
vt 0.719203 0.467625
vt 0.726828 0.472043
vt 0.735615 0.475117
vt 0.745124 0.476694
vt 0.754876 0.476694
vt 0.764385 0.475117
vt 0.773171 0.472043
vt 0.780797 0.467625
vt 0.947457 0.346539
vt 0.954017 0.340659
vt 0.959663 0.333272
vt 0.964111 0.324747
vt 0.967138 0.315513
vt 0.968592 0.306033
vt 0.968402 0.296781
vt 0.966575 0.288222
vt 0.902747 0.091778
vt 0.899189 0.083780
vt 0.893893 0.076183
vt 0.887123 0.069368
vt 0.879219 0.063677
vt 0.870577 0.059395
vt 0.861631 0.056737
vt 0.852829 0.055836
vt 0.647171 0.055836
vt 0.638369 0.056737
vt 0.629423 0.059395
vt 0.620781 0.063677
vt 0.612877 0.069368
vt 0.606107 0.076183
vt 0.600811 0.083780
vt 0.597253 0.091778
vt 0.533425 0.288222
vt 0.531598 0.296781
vt 0.531407 0.306033
vt 0.532862 0.315513
vt 0.535890 0.324747
vt 0.540337 0.333272
vt 0.545983 0.340659
vt 0.552543 0.346539
s 0
usemtl ground.002
f 465/883/224 467/884/224 468/885/224 469/886/224 470/887/224 471/888/224 472/889/224 466/890/224 449/891/224 451/892/224 452/893/224 453/894/224 454/895/224 455/896/224 456/897/224 450/898/224 513/899/224 515/900/224 516/901/224 517/902/224 518/903/224 519/904/224 520/905/224 514/906/224 497/907/224 499/908/224 500/909/224 501/910/224 502/911/224 503/912/224 504/913/224 498/914/224 481/915/224 483/916/224 484/917/224 485/918/224 486/919/224 487/920/224 488/921/224 482/922/224
f 441/989/261 443/990/261 444/991/261 445/992/261 446/993/261 447/994/261 448/995/261 442/996/261 457/997/261 459/998/261 460/999/261 461/1000/261 462/1001/261 463/1002/261 464/1003/261 458/1004/261 473/1005/261 475/1006/261 476/1007/261 477/1008/261 478/1009/261 479/1010/261 480/1011/261 474/1012/261 489/1013/261 491/1014/261 492/1015/261 493/1016/261 494/1017/261 495/1018/261 496/1019/261 490/1020/261 505/1021/261 507/1022/261 508/1023/261 509/1024/261 510/1025/261 511/1026/261 512/1027/261 506/1028/261
usemtl cliff.002
f 506/867/220 513/868/220 450/869/220 441/870/220
f 474/871/221 481/872/221 498/873/221 489/874/221
f 490/875/222 497/876/222 514/877/222 505/878/222
f 458/879/223 465/880/223 482/881/223 473/882/223
f 442/923/225 449/924/225 466/925/225 457/926/225
f 441/870/226 450/869/226 456/927/226 443/928/226
f 443/928/227 456/927/227 455/929/227 444/930/227
f 444/930/228 455/929/228 454/931/228 445/932/228
f 445/932/229 454/931/229 453/933/229 446/934/229
f 446/935/230 453/936/230 452/937/230 447/938/230
f 447/938/231 452/937/231 451/939/231 448/940/231
f 448/940/232 451/939/232 449/924/232 442/923/232
f 465/880/233 458/879/233 464/941/233 467/942/233
f 467/942/234 464/941/234 463/943/234 468/944/234
f 468/944/235 463/943/235 462/945/235 469/946/235
f 469/946/236 462/945/236 461/947/236 470/948/236
f 470/948/237 461/947/237 460/949/237 471/950/237
f 471/950/238 460/949/238 459/951/238 472/952/238
f 472/952/239 459/951/239 457/926/239 466/925/239
f 481/872/240 474/871/240 480/953/240 483/954/240
f 483/954/241 480/953/241 479/955/241 484/956/241
f 484/956/242 479/955/242 478/957/242 485/958/242
f 485/958/243 478/957/243 477/959/243 486/960/243
f 486/960/244 477/959/244 476/961/244 487/962/244
f 487/962/245 476/961/245 475/963/245 488/964/245
f 488/964/246 475/963/246 473/882/246 482/881/246
f 497/876/247 490/875/247 496/965/247 499/966/247
f 499/966/248 496/965/248 495/967/248 500/968/248
f 500/968/249 495/967/249 494/969/249 501/970/249
f 501/970/250 494/969/250 493/971/250 502/972/250
f 502/972/251 493/971/251 492/973/251 503/974/251
f 503/974/252 492/973/252 491/975/252 504/976/252
f 504/976/253 491/975/253 489/874/253 498/873/253
f 513/868/254 506/867/254 512/977/254 515/978/254
f 515/978/255 512/977/255 511/979/255 516/980/255
f 516/980/256 511/979/256 510/981/256 517/982/256
f 517/982/257 510/981/257 509/983/257 518/984/257
f 518/984/258 509/983/258 508/985/258 519/986/258
f 519/986/259 508/985/259 507/987/259 520/988/259
f 520/988/260 507/987/260 505/878/260 514/877/260
o Cylinder.001
v -19.302544 0.393791 6.287597
v -19.767471 0.393791 4.903875
v -19.460653 0.393791 6.150082
v -19.596954 0.393791 5.976191
v -19.704613 0.393791 5.774641
v -19.778231 0.393791 5.555540
v -19.814116 0.393791 5.329875
v -19.810469 0.393791 5.108960
v -19.767471 2.123948 4.903875
v -19.302544 2.123948 6.287597
v -19.810469 2.123948 5.108960
v -19.814116 2.123948 5.329875
v -19.778231 2.123948 5.555540
v -19.704613 2.123948 5.774641
v -19.596954 2.123948 5.976191
v -19.460653 2.123948 6.150082
v -18.269545 0.393791 0.233767
v -17.086559 0.393791 -0.641708
v -18.185232 0.393791 0.041424
v -18.059706 0.393791 -0.141901
v -17.899263 0.393791 -0.307015
v -17.711946 0.393791 -0.445639
v -17.507153 0.393791 -0.550822
v -17.295145 0.393791 -0.617289
v -17.086559 2.123948 -0.641708
v -18.269545 2.123948 0.233767
v -17.295145 2.123948 -0.617289
v -17.507153 2.123948 -0.550822
v -17.711946 2.123948 -0.445639
v -17.899263 2.123948 -0.307015
v -18.059706 2.123948 -0.141901
v -18.185232 2.123948 0.041424
v -12.133624 0.393791 -0.710049
v -10.938786 0.393791 0.136527
v -11.924742 0.393791 -0.691292
v -11.711859 0.393791 -0.630398
v -11.505651 0.393791 -0.530420
v -11.316458 0.393791 -0.396372
v -11.153768 0.393791 -0.234975
v -11.025737 0.393791 -0.054323
v -10.938786 2.123948 0.136527
v -12.133624 2.123948 -0.710049
v -11.025737 2.123948 -0.054323
v -11.153768 2.123948 -0.234975
v -11.316458 2.123948 -0.396372
v -11.505651 2.123948 -0.530420
v -11.711859 2.123948 -0.630398
v -11.924742 2.123948 -0.691292
v -9.386410 0.393791 4.756726
v -9.827648 0.393791 6.153020
v -9.340479 0.393791 4.961359
v -9.333451 0.393791 5.182668
v -9.365679 0.393791 5.409557
v -9.435545 0.393791 5.630649
v -9.539547 0.393791 5.834856
v -9.672470 0.393791 6.011940
v -9.827648 2.123948 6.153020
v -9.386410 2.123948 4.756726
v -9.672470 2.123948 6.011940
v -9.539547 2.123948 5.834856
v -9.435545 2.123948 5.630649
v -9.365679 2.123948 5.409557
v -9.333451 2.123948 5.182668
v -9.340479 2.123948 4.961359
v -13.816976 0.393791 9.089260
v -15.288587 0.393791 9.105723
v -13.997988 0.393791 9.195745
v -14.207115 0.393791 9.270779
v -14.433874 0.393791 9.310596
v -14.666891 0.393791 9.313204
v -14.894484 0.393791 9.278468
v -15.105238 0.393791 9.208133
v -15.288587 2.123948 9.105723
v -13.816976 2.123948 9.089260
v -15.105238 2.123948 9.208133
v -14.894484 2.123948 9.278468
v -14.666891 2.123948 9.313204
v -14.433874 2.123948 9.310596
v -14.207115 2.123948 9.270779
v -13.997988 2.123948 9.195745
vn -0.5746 -0.0000 0.8184
vn 0.9479 -0.0000 -0.3185
vn 0.5928 -0.0000 0.8054
vn -0.0138 -0.0000 -0.9999
vn -0.0000 1.0000 -0.0000
vn -0.9522 -0.0000 -0.3054
vn -0.6563 -0.0000 0.7545
vn -0.7870 -0.0000 0.6169
vn -0.8821 -0.0000 0.4712
vn -0.9479 -0.0000 0.3185
vn -0.9876 -0.0000 0.1570
vn -0.9999 -0.0000 -0.0165
vn -0.9787 -0.0000 -0.2052
vn -0.1163 -0.0000 -0.9932
vn -0.2992 -0.0000 -0.9542
vn -0.4569 -0.0000 -0.8895
vn -0.5949 -0.0000 -0.8038
vn -0.7172 -0.0000 -0.6969
vn -0.8251 -0.0000 -0.5650
vn -0.9159 -0.0000 -0.4015
vn 0.9100 -0.0000 -0.4146
vn 0.8159 -0.0000 -0.5782
vn 0.7043 -0.0000 -0.7099
vn 0.5781 -0.0000 -0.8159
vn 0.4363 -0.0000 -0.8998
vn 0.2750 -0.0000 -0.9614
vn 0.0894 -0.0000 -0.9960
vn 0.6727 -0.0000 0.7399
vn 0.7998 -0.0000 0.6003
vn 0.8911 -0.0000 0.4538
vn 0.9535 -0.0000 0.3013
vn 0.9901 -0.0000 0.1406
vn 0.9995 -0.0000 -0.0317
vn 0.9757 -0.0000 -0.2190
vn -0.4876 -0.0000 0.8730
vn -0.3166 -0.0000 0.9486
vn -0.1509 -0.0000 0.9886
vn 0.0112 -0.0000 0.9999
vn 0.1730 -0.0000 0.9849
vn 0.3377 -0.0000 0.9412
vn 0.5070 -0.0000 0.8619
vn -0.0000 -1.0000 -0.0000
vt -0.634440 0.006118
vt -0.634440 0.993068
vt -1.142745 0.993068
vt -1.142745 0.006118
vt 0.757453 0.006118
vt 0.757453 0.993068
vt 0.250003 0.993068
vt 0.250003 0.006118
vt 0.062400 0.006118
vt 0.062400 0.993068
vt -0.447264 0.993068
vt -0.447264 0.006118
vt 1.454719 0.006118
vt 1.454719 0.993068
vt 0.945056 0.993068
vt 0.945056 0.006118
vt 0.987872 0.548032
vt 0.992008 0.567413
vt 0.992440 0.588364
vt 0.989145 0.609833
vt 0.982290 0.630743
vt 0.972218 0.650047
vt 0.959433 0.666776
vt 0.944578 0.680091
vt 0.567170 0.954294
vt 0.549904 0.964298
vt 0.530005 0.971260
vt 0.508474 0.974831
vt 0.486388 0.974831
vt 0.464857 0.971260
vt 0.444958 0.964298
vt 0.427691 0.954294
vt 0.050284 0.680091
vt 0.035429 0.666776
vt 0.022644 0.650047
vt 0.012572 0.630743
vt 0.005717 0.609833
vt 0.002422 0.588364
vt 0.002854 0.567413
vt 0.006990 0.548032
vt 0.151532 0.103177
vt 0.159588 0.085066
vt 0.171582 0.067863
vt 0.186913 0.052431
vt 0.204812 0.039543
vt 0.224382 0.029847
vt 0.244640 0.023827
vt 0.264573 0.021786
vt 0.730289 0.021786
vt 0.750221 0.023827
vt 0.770480 0.029846
vt 0.790050 0.039543
vt 0.807949 0.052431
vt 0.823280 0.067863
vt 0.835274 0.085066
vt 0.843330 0.103177
vt 2.150200 0.006118
vt 2.150200 0.993068
vt 1.641896 0.993068
vt 1.641896 0.006118
vt -1.164345 0.993068
vt -1.164346 0.006118
vt -1.186263 0.993068
vt -1.186263 0.006118
vt -1.207398 0.993068
vt -1.207398 0.006118
vt -1.236672 0.993068
vt -1.236672 0.006118
vt 2.244128 0.006118
vt 2.244128 0.993068
vt 2.193718 0.993068
vt 2.193718 0.006118
vt 2.171801 0.993068
vt 2.171801 0.006118
vt 1.476214 0.006118
vt 1.476214 0.993068
vt 1.498120 0.006118
vt 1.498120 0.993068
vt 1.519339 0.006118
vt 1.519339 0.993068
vt 1.576805 0.006118
vt 1.576805 0.993068
vt 1.598179 0.006118
vt 1.598179 0.993068
vt 1.620245 0.006118
vt 1.620245 0.993068
vt 0.779171 0.006118
vt 0.779171 0.993068
vt 0.801246 0.006118
vt 0.801245 0.993068
vt 0.822569 0.006118
vt 0.822569 0.993068
vt 0.880704 0.006118
vt 0.880704 0.993068
vt 0.901777 0.006118
vt 0.901777 0.993068
vt 0.923592 0.006118
vt 0.923592 0.993068
vt 0.083863 0.006118
vt 0.083863 0.993068
vt 0.105678 0.006118
vt 0.105678 0.993068
vt 0.126752 0.006118
vt 0.126752 0.993068
vt 0.184887 0.006118
vt 0.184887 0.993068
vt 0.206210 0.006118
vt 0.206210 0.993068
vt 0.228284 0.006118
vt 0.228284 0.993068
vt -0.612789 0.006118
vt -0.612789 0.993068
vt -0.590723 0.006118
vt -0.590723 0.993068
vt -0.569350 0.006118
vt -0.569350 0.993068
vt -0.511883 0.006118
vt -0.511883 0.993068
vt -0.490665 0.006118
vt -0.490664 0.993068
vt -0.468758 0.006118
vt -0.468758 0.993068
vt 0.719203 0.467625
vt 0.726828 0.472043
vt 0.735615 0.475117
vt 0.745124 0.476694
vt 0.754876 0.476694
vt 0.764385 0.475117
vt 0.773171 0.472043
vt 0.780797 0.467625
vt 0.947457 0.346539
vt 0.954017 0.340659
vt 0.959663 0.333272
vt 0.964111 0.324747
vt 0.967138 0.315513
vt 0.968592 0.306033
vt 0.968402 0.296781
vt 0.966575 0.288222
vt 0.902747 0.091778
vt 0.899189 0.083780
vt 0.893893 0.076183
vt 0.887123 0.069368
vt 0.879219 0.063677
vt 0.870577 0.059395
vt 0.861631 0.056737
vt 0.852829 0.055836
vt 0.647171 0.055836
vt 0.638369 0.056737
vt 0.629423 0.059395
vt 0.620781 0.063677
vt 0.612877 0.069368
vt 0.606107 0.076183
vt 0.600811 0.083780
vt 0.597253 0.091778
vt 0.533425 0.288222
vt 0.531598 0.296781
vt 0.531407 0.306033
vt 0.532862 0.315513
vt 0.535890 0.324747
vt 0.540337 0.333272
vt 0.545983 0.340659
vt 0.552543 0.346539
s 0
usemtl ground.002
f 545/1045/266 547/1046/266 548/1047/266 549/1048/266 550/1049/266 551/1050/266 552/1051/266 546/1052/266 529/1053/266 531/1054/266 532/1055/266 533/1056/266 534/1057/266 535/1058/266 536/1059/266 530/1060/266 593/1061/266 595/1062/266 596/1063/266 597/1064/266 598/1065/266 599/1066/266 600/1067/266 594/1068/266 577/1069/266 579/1070/266 580/1071/266 581/1072/266 582/1073/266 583/1074/266 584/1075/266 578/1076/266 561/1077/266 563/1078/266 564/1079/266 565/1080/266 566/1081/266 567/1082/266 568/1083/266 562/1084/266
f 521/1151/303 523/1152/303 524/1153/303 525/1154/303 526/1155/303 527/1156/303 528/1157/303 522/1158/303 537/1159/303 539/1160/303 540/1161/303 541/1162/303 542/1163/303 543/1164/303 544/1165/303 538/1166/303 553/1167/303 555/1168/303 556/1169/303 557/1170/303 558/1171/303 559/1172/303 560/1173/303 554/1174/303 569/1175/303 571/1176/303 572/1177/303 573/1178/303 574/1179/303 575/1180/303 576/1181/303 570/1182/303 585/1183/303 587/1184/303 588/1185/303 589/1186/303 590/1187/303 591/1188/303 592/1189/303 586/1190/303
usemtl cliff.002
f 586/1029/262 593/1030/262 530/1031/262 521/1032/262
f 554/1033/263 561/1034/263 578/1035/263 569/1036/263
f 570/1037/264 577/1038/264 594/1039/264 585/1040/264
f 538/1041/265 545/1042/265 562/1043/265 553/1044/265
f 522/1085/267 529/1086/267 546/1087/267 537/1088/267
f 521/1032/268 530/1031/268 536/1089/268 523/1090/268
f 523/1090/269 536/1089/269 535/1091/269 524/1092/269
f 524/1092/270 535/1091/270 534/1093/270 525/1094/270
f 525/1094/271 534/1093/271 533/1095/271 526/1096/271
f 526/1097/272 533/1098/272 532/1099/272 527/1100/272
f 527/1100/273 532/1099/273 531/1101/273 528/1102/273
f 528/1102/274 531/1101/274 529/1086/274 522/1085/274
f 545/1042/275 538/1041/275 544/1103/275 547/1104/275
f 547/1104/276 544/1103/276 543/1105/276 548/1106/276
f 548/1106/277 543/1105/277 542/1107/277 549/1108/277
f 549/1108/278 542/1107/278 541/1109/278 550/1110/278
f 550/1110/279 541/1109/279 540/1111/279 551/1112/279
f 551/1112/280 540/1111/280 539/1113/280 552/1114/280
f 552/1114/281 539/1113/281 537/1088/281 546/1087/281
f 561/1034/282 554/1033/282 560/1115/282 563/1116/282
f 563/1116/283 560/1115/283 559/1117/283 564/1118/283
f 564/1118/284 559/1117/284 558/1119/284 565/1120/284
f 565/1120/285 558/1119/285 557/1121/285 566/1122/285
f 566/1122/286 557/1121/286 556/1123/286 567/1124/286
f 567/1124/287 556/1123/287 555/1125/287 568/1126/287
f 568/1126/288 555/1125/288 553/1044/288 562/1043/288
f 577/1038/289 570/1037/289 576/1127/289 579/1128/289
f 579/1128/290 576/1127/290 575/1129/290 580/1130/290
f 580/1130/291 575/1129/291 574/1131/291 581/1132/291
f 581/1132/292 574/1131/292 573/1133/292 582/1134/292
f 582/1134/293 573/1133/293 572/1135/293 583/1136/293
f 583/1136/294 572/1135/294 571/1137/294 584/1138/294
f 584/1138/295 571/1137/295 569/1036/295 578/1035/295
f 593/1030/296 586/1029/296 592/1139/296 595/1140/296
f 595/1140/297 592/1139/297 591/1141/297 596/1142/297
f 596/1142/298 591/1141/298 590/1143/298 597/1144/298
f 597/1144/299 590/1143/299 589/1145/299 598/1146/299
f 598/1146/300 589/1145/300 588/1147/300 599/1148/300
f 599/1148/301 588/1147/301 587/1149/301 600/1150/301
f 600/1150/302 587/1149/302 585/1040/302 594/1039/302
